<svg version="1.0" xmlns="http://www.w3.org/2000/svg" width="1169.333" height="706.667" viewBox="0 0 877 530"><path d="M617.6 12c-1 4.4-2.4 11.1-18.1 86-8.5 40.4-19.7 93.7-25 118.5-5.2 24.7-9.5 45.6-9.5 46.4 0 1.1.4 1.1 1.9-.3 2.3-2.1 3.3-6 13.1-54.1 11.5-56 37.4-179.6 40.5-193.1.2-1.1-.2-2.9-.9-4-1.4-1.8-1.5-1.8-2 .6zm-314 21.4c.3.7 2.6 1.6 5.2 2 5 .7 95.6 7.6 99.8 7.6 2.1 0 4.4-2.4 3.3-3.4-.3-.3-98-7.2-106.1-7.5-2-.1-2.6.3-2.2 1.3zm100.5 19.3c-4.1 15.5-6.1 24.6-5.6 25.1.3.3.7.3.8.1 1-1.2 7.3-28.9 6.6-28.9-.4 0-1.3 1.7-1.8 3.7zm-236.4 9c-1.4 1.3-.6 3.3 1.2 3.3 1.9 0 3.5-2.3 2.4-3.4-.8-.8-2.8-.8-3.6.1zM165 71c0 1.3.7 2 2 2s2-.7 2-2-.7-2-2-2-2 .7-2 2zm192 38.2c-3 1.5-5.2 3.7-6.7 6.3-3.8 6.8-3.9 11.3-.8 23.5 1.2 4.3 6 7.2 16 9.5 5.6 1.3 19 1.5 20 .3.1-.2 2.2-8.8 4.7-19.1 4.2-17.6 4.4-18.8 2.7-19.7-2.8-1.6-3.9-1.2-4.9 1.6-1.2 3.1-7.8 11.4-9.1 11.4-.5 0-.9-.7-.9-1.7 0-3.6-5.2-10.5-9.3-12.4-5.4-2.4-6.4-2.4-11.7.3zm9 3c2.3 3.9 2.5 7.6.7 12.1-1.7 3.9-3.3 5.3-7.1 6.3l-2.9.7.5-6.6c.3-4.8 1-7.5 2.6-9.7 2.2-3 2.2-3 .2-3-2.4 0-5.7 5-6.6 10-.9 4.6-1.5 5.5-2.5 3.9-2.6-4.1.3-11.8 5.4-14.9 4.7-2.9 7.4-2.6 9.7 1.2zm-215.4 11.5c-1.4 1.5-.5 4.3 1.4 4.3 1.3 0 2-.7 2-1.9 0-1.9-2.3-3.5-3.4-2.4zm277.9 6.9c-1.3 6.5-4.9 11.8-9.4 14.1-4.2 2.1-5.3 2.2-17.1 1.6-9.1-.4-12.9-.3-13.4.6-.5.8 3.3 1.1 14.6 1.1 13.5 0 15.7-.2 18.6-2 4.1-2.5 7-7.2 7.8-12.8.7-4.8-.2-7-1.1-2.6zM147 136.5c0 3 2.5 3.4 3.9.6 1.2-2.1.5-3.1-2.1-3.1-1.3 0-1.8.7-1.8 2.5zm12.9 24.6c-1.6 1.7-3.4 5-4 7.2-1.3 4.8-.4 14.6 1.4 16.4.7.7 4.9 1.5 9.4 1.9l8.2.7 1.6-5.7c2.5-8.4 1.1-15.1-4.3-20.9-3.7-3.9-8.4-3.7-12.3.4zm13.7 4.3c2.2 4.4 1.2 10-2.1 12.2-3.2 2.1-6.1.5-7.4-4.1-2.5-9.1 5.7-16.1 9.5-8.1zm-10.2 25c1.6.8 3.8 1.1 5 .8 1.9-.5 1.9-.6 0-1.3-1-.4-3.2-.8-4.9-.7h-3l2.9 1.2zm564.9 6c-1.6 1.3-3.5 3.5-4.2 4.9l-1.4 2.6-2.9-3c-2.2-2.2-3.9-2.9-6.8-2.9-2 0-4.2.6-4.7 1.2-1.4 2-4.6 23.4-3.9 26.3.7 2.6 5.8 6.5 8.7 6.5.9 0 3.3-1.1 5.4-2.5 2-1.5 3.8-2.5 4-2.3.1.2 1 1.8 1.9 3.6 1.8 3.5 6.9 7.2 9.9 7.2 6 0 12.2-8.8 13.2-19l.5-5.5-1.5 4c-1.7 4.4-4.9 8.2-7.6 9-2.8.9-7.5-2.1-9.3-5.9-3.9-8.2-2.8-18.5 2.4-23.8 2.4-2.4 2.6-2.8 1-2.8-1 0-3.1 1.1-4.7 2.4zm-12 12.3c-.8 8.2-2.3 9.7-4.2 4.3-1.5-4.4.3-8.5 4-8.9.4-.1.4 2 .2 4.6zm-255.6 50c.8 2.1 6.1 13 11.8 24.3l10.3 20.5 14.3 3.5c7.9 1.9 14.9 3.5 15.4 3.5.6 0 1-1.4 1-3 0-2.9-.2-3-4.5-3.2-2.5-.2-7.3-.5-10.7-.9l-6.2-.5-16.2-24c-8.9-13.1-16.3-23.9-16.5-23.9-.2 0 .4 1.7 1.3 3.7zm61.9 13.7c-3.1 13.2-3.1 12.6-.8 12.6 1.5 0 2.3-2 4.3-11.4 2.3-10.6 2.4-11.5.8-11.9-1.4-.4-2.1 1.4-4.3 10.7zm-172.1 4.8c-4.4 1.5-9 2.8-10.2 2.8-1.6 0-2.3.6-2.3 2 0 1.1.6 2 1.3 2 1.2 0 21.7-7.7 22.5-8.4.1-.2-.5-.5-1.5-.8-1-.2-5.4.8-9.8 2.4zm-23 21.4c1.7 1.5 5.4 4.9 8.4 7.5l5.4 4.8-4.5 2.8c-2.4 1.5-6.8 3.9-9.6 5.2-6 2.8-6.6 4.1-1.9 4.1 3.5 0 21.6 4.6 34.1 8.6s12.8 3.5 4-8.1c-4.2-5.5-8.9-11.3-10.5-13l-2.8-2.9-2.7 2.4c-1.5 1.4-2.5 2-2.2 1.5.3-.6-4.2-4.3-10.1-8.3-5.8-4-9.2-6-7.6-4.6zm307.2 7.4c-.3 1.4-.9 4.9-1.2 7.8-.5 4.2-.3 5.3.7 5 1.7-.6 3-10 1.9-13l-.9-2.3-.5 2.5zm-105.8 3.9l-4.4 3.9 2.5 1c1.4.5 3.8 1.2 5.3 1.6l2.8.7-.7-5.3c-.4-2.9-.8-5.4-.9-5.6-.1-.1-2.2 1.5-4.6 3.7zm-81.7 10.9c-7.1 2.9-6.7 3.9 1.8 4.4l5.4.3.3-3.8c.3-2 .1-3.7-.4-3.6-.4 0-3.6 1.3-7.1 2.7zM311.5 329c-.4 1.3-.3 2.5.4 2.9 1.7 1.1.2 7.2-1.6 6.9-.8-.2-2.2.7-3 1.9-1.4 2-1.4 2.3 0 2.3.8 0 2-.6 2.7-1.4 1.4-1.8 3.7-1.1 4.3 1.2.3 1 .3-1.7 0-5.8-.6-8.6-1.7-11.6-2.8-8zm-103 7.9c3.9 3.9 7 7.4 7 7.8-.1.4-.4 6.8-.9 14.1-.8 13-.9 13.2-3.3 13.8-5.7 1.5-16.8-.8-58.7-12-10.9-3-17.4-4.3-18.4-3.7-1.3.7-1.2.9.4 1.4 7 2.2 58.5 14.9 65.4 16.2l8.6 1.7 19.4-5.6c10.7-3.1 19.6-5.8 19.7-6 .8-.8-43.2-34.6-45.1-34.6-.6 0 2.1 3.1 5.9 6.9zm93 9.8c-2.4.6-5.1 2.5-17.5 12.2-5.2 4.1-12.5 9.4-16.3 11.9l-6.7 4.5 1.6 2.6c4.8 7.3 5.2 7.5 22.5 8.5 14 .9 15.9 1.2 16.5 2.8.3 1 .8 1.8 1.2 1.8.4 0 3.4.5 6.7 1 3.3.6 27.8 4.4 54.5 8.5 60.8 9.4 43.9 6.8 167 25.5 58 8.8 110.2 16.7 115.9 17.6 8.7 1.3 10.5 1.4 11.2.3.7-1.2 1.3-4.8 1.1-7 0-.3.3-2.3.8-4.4.9-4.1.8-4.5-15-32.7-.8-1.5-5.6-10.3-10.7-19.5s-9.6-17.4-10-18.2c-.7-1.1-1.3-.8-2.6 1.3-1.8 2.6-1.7 2.8.6 6.9 1.4 2.3 6.1 10.9 10.6 19.1l8.1 14.9-1.9 3.1c-1.1 1.7-3.1 4.2-4.4 5.5l-2.5 2.3-10.1-1.9c-5.6-1.1-10.1-1.8-10.1-1.6 0 .2.6 1.9 1.4 3.7l1.4 3.4-10.2.7c-5.6.4-23 .5-38.6.2-31.3-.5-37.6-1.4-41.6-6-2.3-2.7-3.4-2.6-3.4.5 0 1-.4 1.8-1 1.8-.5 0-6.4-1.8-13.2-3.9-36.5-11.6-68.7-20.6-69.7-19.6-.2.3.1 1.6.7 2.9.8 1.8 2.1 2.5 5.8 3.1l4.7.7-4.4 4.4c-5.2 5.3-6.4 5.4-23.4 1.9-7.5-1.5-15.4-2.5-21-2.5-16.5 0-35.8-3.2-48.5-8-4.1-1.5-10.1-3.3-13.3-4-10-2-13.8-7.7-19.3-28.5-2.2-8.5-2.3-8.7-2.4-4.3v4.7l-5.7.6c-3.2.4-10.2 1.3-15.6 1.9l-9.8 1.3 4.3-4.6c2.4-2.5 6.7-7.2 9.8-10.4 3-3.1 5.2-5.6 5-5.6-.3.1-1.4.4-2.5.6zm348.7 74.6c3.6 6.7 6.5 12.4 6.3 12.6-.2.2-6.7-.3-14.4-1-12.6-1.1-14.3-1.5-16.3-3.6l-2.2-2.3 3.4 1.2c3.2 1.1 3.5 1 6.6-2.6 1.8-2.1 4.5-6.7 6-10.2 1.6-3.5 3.1-6.4 3.4-6.4.3 0 3.5 5.5 7.2 12.3z"/><path d="M444.5 356.1c-.4.6-.5 1.2-.2 1.5.2.3.7-.2 1-1.1.7-1.7.1-2-.8-.4zm-1.4 3.6c-.1.6-.4 2-.7 3-.5 1.7-.5 1.7.6 0 .6-1 .9-2.3.6-3-.3-.9-.5-.9-.5 0zM598 377c0 .9 10 2.3 10.8 1.5.3-.3.3-.7.1-.9-.8-.7-10.9-1.3-10.9-.6zm243.7 138.4l-32.8 14.1 5.5.3c5.2.3 7.4-.5 33.6-11.9 21.7-9.5 28-12.6 28-14 0-1-.3-2-.7-2.2-.5-.2-15.6 6-33.6 13.7z"/></svg>