<?xml version="1.0" encoding="UTF-8"?>
<svg xmlns="http://www.w3.org/2000/svg" xmlns:xlink="http://www.w3.org/1999/xlink" width="678pt" height="547pt" viewBox="0 0 678 547" version="1.1">
<g id="surface1">
<path style=" stroke:none;fill-rule:nonzero;fill:rgb(0%,0%,0%);fill-opacity:1;" d="M 68 184.984375 C 68 187.085938 70.601562 187.6875 72.300781 185.886719 C 73.898438 184.183594 73.898438 184.085938 71 184.085938 C 69.398438 184.085938 68 184.484375 68 184.984375 Z M 324 186.085938 C 322.800781 186.886719 323 187.085938 324.800781 187.085938 C 326.101562 187.085938 326.800781 186.683594 326.5 186.085938 C 325.800781 184.882812 325.898438 184.882812 324 186.085938 Z M 180.199219 187.386719 C 179.601562 187.984375 178.898438 189.785156 178.5 191.289062 C 178.101562 192.789062 177.101562 194.1875 176.199219 194.390625 C 174.699219 194.789062 174.699219 194.890625 176.101562 194.988281 C 177 194.988281 178.300781 196.191406 179 197.589844 C 180.5 200.390625 182.5 200.890625 183.398438 198.589844 C 183.800781 197.488281 183.300781 197.089844 181.5 197.089844 C 179.601562 197.089844 179 196.589844 179 194.988281 C 179 192.789062 181.199219 190.085938 182.898438 190.085938 C 183.5 190.085938 184 189.1875 184 188.085938 C 184 185.886719 181.800781 185.382812 180.199219 187.386719 Z M 234.800781 188.386719 C 233.699219 189.285156 233.398438 190.1875 234 191.085938 C 235.199219 193.089844 240.199219 190.789062 239.398438 188.585938 C 238.699219 186.785156 237.101562 186.683594 234.800781 188.386719 Z M 344 189.085938 C 344 190.1875 344.699219 191.085938 345.5 191.085938 C 346.300781 191.085938 347 190.1875 347 189.085938 C 347 187.984375 346.300781 187.085938 345.5 187.085938 C 344.699219 187.085938 344 187.984375 344 189.085938 Z M 388.300781 190.1875 C 387 193.589844 387.300781 195.089844 389.5 195.089844 C 390.199219 195.089844 391 195.6875 391.199219 196.289062 C 392.101562 198.589844 390.898438 200.089844 388.398438 200.089844 C 385.601562 200.089844 385.199219 201.59375 387.699219 202.492188 C 388.699219 202.894531 390.800781 202.191406 392.898438 200.589844 C 395.398438 198.890625 396.601562 198.492188 396.898438 199.289062 C 398 202.59375 402.5 202.992188 405.101562 199.992188 C 407.398438 197.289062 408.601562 191.289062 407.300781 189.1875 C 405.5 186.285156 402.398438 186.785156 399.601562 190.386719 C 398.199219 192.289062 397 194.289062 397 194.988281 C 397 195.789062 396.101562 195.6875 394 194.589844 C 390.5 192.789062 390.101562 191.085938 393 190.386719 C 396.101562 189.585938 395.5 187.085938 392.199219 187.085938 C 390 187.085938 389.199219 187.785156 388.300781 190.1875 Z M 405 192.886719 C 405 196.789062 402.199219 200.492188 400.5 199.089844 C 399.101562 197.890625 399.300781 196.488281 401.300781 192.289062 C 402.800781 189.1875 405 189.488281 405 192.886719 Z M 378.898438 188.285156 C 378.800781 188.484375 378.601562 190.488281 378.601562 192.789062 C 378.5 195.1875 377.601562 197.890625 376.601562 198.992188 C 374.5 201.390625 375.199219 203.09375 378.5 203.09375 C 380.5 203.09375 380.898438 202.492188 381.300781 198.289062 C 381.601562 195.6875 382 192.488281 382.199219 191.085938 C 382.398438 189.386719 382 188.585938 380.800781 188.285156 C 379.800781 188.085938 378.898438 188.085938 378.898438 188.285156 Z M 115.398438 190.789062 C 115.300781 191.789062 115 193.789062 114.5 195.289062 C 113.5 199.191406 115.300781 198.789062 116.800781 194.890625 C 117.699219 192.289062 117.699219 191.386719 116.699219 190.386719 C 115.699219 189.285156 115.398438 189.386719 115.398438 190.789062 Z M 144 190.789062 C 144 191.988281 144.300781 192.1875 144.800781 191.488281 C 145.199219 190.789062 146.601562 190.085938 148 189.785156 C 150.101562 189.386719 150 189.386719 147.300781 189.1875 C 144.800781 189.085938 144 189.488281 144 190.789062 Z M 190.5 190.1875 C 189.300781 191.988281 190.800781 192.386719 192.5 190.6875 C 193.898438 189.285156 193.898438 189.085938 192.601562 189.085938 C 191.800781 189.085938 190.800781 189.585938 190.5 190.1875 Z M 195.800781 192.085938 C 196 193.6875 196.398438 195.089844 196.601562 195.089844 C 196.800781 195.089844 197 193.6875 197 192.085938 C 197 190.386719 196.601562 189.085938 196.199219 189.085938 C 195.699219 189.085938 195.5 190.386719 195.800781 192.085938 Z M 258.800781 189.785156 C 259.5 190.085938 260.398438 189.988281 260.699219 189.6875 C 261.101562 189.386719 260.5 189.085938 259.398438 189.1875 C 258.300781 189.1875 258 189.488281 258.800781 189.785156 Z M 288.800781 189.785156 C 289.5 190.085938 290.398438 189.988281 290.699219 189.6875 C 291.101562 189.386719 290.5 189.085938 289.398438 189.1875 C 288.300781 189.1875 288 189.488281 288.800781 189.785156 Z M 296.601562 190.6875 C 295.699219 193.089844 295.800781 193.289062 297.800781 192.1875 C 298.800781 191.585938 300.601562 191.488281 301.800781 191.789062 C 304.300781 192.386719 304.800781 190.585938 302.398438 189.6875 C 299.601562 188.585938 297.199219 189.085938 296.601562 190.6875 Z M 305 190.585938 C 305 191.386719 305.699219 192.085938 306.5 192.085938 C 307.300781 192.085938 308 191.386719 308 190.585938 C 308 189.785156 307.300781 189.085938 306.5 189.085938 C 305.699219 189.085938 305 189.785156 305 190.585938 Z M 423.5 190.789062 C 419.699219 194.488281 418.898438 201.390625 421.898438 203.09375 C 424.699219 204.492188 425.699219 204.394531 427.898438 201.992188 L 429.898438 199.890625 L 432.101562 201.992188 C 434.898438 204.59375 436.101562 204.59375 438.898438 202.292969 C 441.5 200.191406 443.300781 193.488281 441.898438 190.886719 C 440.699219 188.6875 436.699219 188.484375 435 190.585938 C 434.300781 191.386719 433.300781 192.085938 432.800781 192.085938 C 432.300781 192.085938 431.199219 191.386719 430.398438 190.585938 C 428.398438 188.585938 425.5 188.6875 423.5 190.789062 Z M 428.199219 193.289062 C 429.101562 195.890625 427.398438 199.589844 425.199219 199.890625 C 423.5 200.191406 423 199.691406 423 198.191406 C 423 193.886719 427.101562 190.1875 428.199219 193.289062 Z M 439.199219 195.589844 C 438.699219 200.390625 435.601562 202.894531 434.398438 199.589844 C 433.398438 197.191406 436 191.988281 437.898438 192.289062 C 439 192.589844 439.398438 193.488281 439.199219 195.589844 Z M 125.601562 191.6875 C 124.5 194.6875 124.898438 195.890625 127 195.390625 C 129.300781 194.789062 129.699219 191.585938 127.601562 190.789062 C 126.800781 190.488281 125.898438 190.886719 125.601562 191.6875 Z M 210 192.289062 C 210 193.886719 210.5 195.089844 211 195.089844 C 212.300781 195.089844 212.300781 193.089844 211 191.085938 C 210.199219 189.886719 210 190.1875 210 192.289062 Z M 101.300781 192.6875 C 100.398438 195.1875 102.601562 196.691406 103.898438 194.289062 C 104.898438 192.386719 104.5 191.085938 102.800781 191.085938 C 102.300781 191.085938 101.699219 191.789062 101.300781 192.6875 Z M 153.398438 192.589844 C 152.699219 194.390625 153.699219 196.089844 155.5 196.089844 C 156.199219 196.089844 157.101562 196.691406 157.300781 197.289062 C 158.300781 199.792969 158 196.289062 157 193.6875 C 155.898438 190.789062 154.199219 190.285156 153.398438 192.589844 Z M 220.101562 191.988281 C 219 192.6875 218.898438 193.488281 219.601562 195.089844 C 220.5 197.089844 220.601562 197.089844 221.699219 194.089844 C 222.898438 190.988281 222.5 190.488281 220.101562 191.988281 Z M 280.300781 194.089844 C 279.199219 197.992188 279.699219 200.292969 281.199219 197.691406 C 281.699219 196.789062 282 194.789062 281.800781 193.289062 C 281.398438 190.6875 281.398438 190.6875 280.300781 194.089844 Z M 214.101562 192.988281 C 212.898438 193.789062 212.898438 194.1875 214.300781 195.589844 C 215.898438 197.089844 216 197.089844 216 194.6875 C 216 191.789062 216 191.789062 214.101562 192.988281 Z M 226 193.488281 C 226 195.6875 228.699219 196.191406 229.300781 193.988281 C 229.699219 192.589844 229.300781 192.085938 227.898438 192.085938 C 226.898438 192.085938 226 192.6875 226 193.488281 Z M 250.5 193.589844 C 250.199219 194.390625 249.800781 195.789062 249.5 196.589844 C 248.699219 199.191406 251 198.191406 252 195.488281 C 253.199219 192.289062 253.199219 192.085938 252 192.085938 C 251.398438 192.085938 250.699219 192.789062 250.5 193.589844 Z M 77.398438 195.488281 C 77.101562 196.988281 77.199219 198.691406 77.699219 199.191406 C 78.398438 199.890625 79 199.289062 79.398438 197.488281 C 79.800781 195.988281 79.699219 194.390625 79.101562 193.789062 C 78.398438 193.089844 77.898438 193.6875 77.398438 195.488281 Z M 135.398438 195.589844 C 135 196.390625 135.101562 197.890625 135.398438 198.789062 C 136 200.191406 136.300781 199.992188 137.5 197.691406 C 139.300781 194.1875 139.300781 194.089844 137.5 194.089844 C 136.601562 194.089844 135.699219 194.789062 135.398438 195.589844 Z M 294.101562 195.6875 C 294.101562 196.789062 294.398438 197.089844 294.699219 196.289062 C 295 195.589844 294.898438 194.6875 294.601562 194.390625 C 294.300781 193.988281 294 194.589844 294.101562 195.6875 Z M 88.5 196.691406 C 85.601562 197.992188 85.601562 197.992188 91 197.890625 C 94 197.890625 95.601562 197.589844 94.5 197.390625 C 93.398438 197.089844 92.300781 196.488281 92 196.089844 C 91.699219 195.6875 90.199219 195.988281 88.5 196.691406 Z M 167.199219 196.691406 C 166.5 197.488281 166.398438 198.089844 166.898438 198.089844 C 167.898438 198.089844 169.398438 196.191406 168.898438 195.589844 C 168.699219 195.488281 167.898438 195.890625 167.199219 196.691406 Z M 188.601562 197.390625 C 187.699219 200.691406 187.800781 200.992188 190 200.390625 C 192.300781 199.792969 192.5 198.492188 190.601562 196.589844 C 189.398438 195.390625 189.101562 195.488281 188.601562 197.390625 Z M 142 198.191406 C 142 200.589844 144.300781 200.292969 144.800781 197.789062 C 145 196.789062 144.5 196.089844 143.601562 196.089844 C 142.601562 196.089844 142 196.988281 142 198.191406 Z M 232.300781 197.589844 C 230.800781 198.789062 230.800781 199.191406 231.898438 199.992188 C 233.601562 201.09375 237 200.191406 237 198.589844 C 237 196.589844 234.398438 196.089844 232.300781 197.589844 Z M 284 198.089844 C 284 199.589844 284.699219 200.089844 286.699219 200.089844 L 289.300781 200.089844 L 287 198.089844 C 285.699219 196.988281 284.5 196.089844 284.300781 196.089844 C 284.199219 196.089844 284 196.988281 284 198.089844 Z M 321 198.589844 C 321 199.390625 321.699219 200.089844 322.5 200.089844 C 323.300781 200.089844 324 199.390625 324 198.589844 C 324 197.789062 323.300781 197.089844 322.5 197.089844 C 321.699219 197.089844 321 197.789062 321 198.589844 Z M 407.601562 201.691406 C 407.199219 202.792969 407.5 203.09375 408.699219 202.894531 C 409.601562 202.691406 410.5 201.992188 410.800781 201.292969 C 411.398438 199.492188 408.300781 199.792969 407.601562 201.691406 Z M 64.101562 261.519531 C 63.5 262.21875 62.699219 265.019531 62.398438 267.722656 L 61.699219 272.625 L 63.898438 270.722656 C 65.398438 269.421875 65.699219 268.421875 65 267.722656 C 63.398438 266.121094 63.800781 264.019531 66.199219 262.019531 C 67.800781 260.617188 67.898438 260.117188 66.800781 260.117188 C 65.898438 260.117188 64.699219 260.71875 64.101562 261.519531 Z M 69.601562 262.019531 C 69.199219 262.621094 69.398438 263.121094 69.898438 263.121094 C 70.5 263.121094 71 263.921875 71.101562 264.820312 C 71.101562 265.820312 71.398438 266.121094 71.601562 265.421875 C 72.398438 263.621094 70.5 260.519531 69.601562 262.019531 Z M 164.5 262.71875 C 162.898438 263.921875 162.699219 264.519531 163.800781 266.121094 C 164.699219 267.621094 164.699219 268.621094 163.800781 270.625 C 163.199219 272.023438 162.300781 273.125 161.800781 273.125 C 161.398438 273.125 161 273.824219 161 274.625 C 161 275.625 162 276.125 163.898438 276.125 C 166.601562 276.125 166.898438 275.824219 166.898438 272.824219 C 166.898438 271.125 167.199219 267.722656 167.601562 265.320312 C 168.300781 260.820312 167.699219 260.320312 164.5 262.71875 Z M 186.5 264.820312 C 185.101562 266.320312 184 268.421875 184 269.421875 C 184 271.023438 183.800781 271.023438 181 269.625 C 177.601562 267.824219 177 265.121094 180 265.121094 C 181.101562 265.121094 182 264.621094 182 264.121094 C 182 263.519531 180.699219 263.121094 179.199219 263.121094 C 177.101562 263.121094 175.898438 263.820312 174.898438 265.722656 C 173.699219 268.121094 173.699219 268.523438 175.898438 270.222656 C 178.699219 272.425781 178.101562 275.125 174.800781 275.125 C 172.699219 275.226562 172.601562 275.226562 174.398438 276.226562 C 175.800781 277.125 176.800781 276.925781 179.101562 275.226562 C 182.5 272.722656 183.300781 272.625 185 274.625 C 188.5 278.828125 195 273.925781 195 267.121094 C 195 264.019531 194.601562 263.21875 192.800781 262.71875 C 189.398438 261.820312 189.300781 261.917969 186.5 264.820312 Z M 192 268.523438 C 192 272.023438 189.898438 274.824219 188 273.625 C 186.601562 272.824219 186.699219 269.523438 188.199219 267.121094 C 190.199219 264.019531 192 264.722656 192 268.523438 Z M 210.300781 265.921875 C 207.300781 269.523438 207.101562 275.726562 210 276.625 C 212.300781 277.328125 216 276.425781 216 275.027344 C 216 273.625 218.601562 273.925781 220 275.625 C 224.101562 280.527344 232.699219 272.023438 230.5 265.222656 C 230 263.621094 229 263.121094 226.398438 263.121094 C 224.5 263.121094 223 263.519531 223 264.019531 C 223 265.722656 219.601562 266.222656 218.398438 264.722656 C 216.699219 262.21875 212.800781 262.820312 210.300781 265.921875 Z M 227.601562 266.621094 C 228.5 268.824219 225.800781 274.226562 224 273.824219 C 221.199219 273.324219 223.199219 265.121094 226.199219 265.121094 C 226.699219 265.121094 227.300781 265.820312 227.601562 266.621094 Z M 216 267.824219 C 216 271.625 214.699219 274.125 212.898438 274.125 C 210.800781 274.125 210.398438 271.222656 212 268.023438 C 213.300781 265.621094 216 265.519531 216 267.824219 Z M 78.699219 268.523438 C 78.800781 270.222656 78.898438 272.222656 78.898438 272.824219 C 79 273.523438 79.5 274.125 80 274.125 C 81.5 274.125 81.199219 266.421875 79.800781 265.820312 C 78.898438 265.519531 78.601562 266.320312 78.699219 268.523438 Z M 111.398438 265.921875 C 110.800781 266.320312 110 267.621094 109.601562 268.824219 C 108.699219 271.625 106 271.824219 106 269.222656 C 106 266.722656 104 265.421875 103 267.121094 C 101.898438 268.824219 103.199219 272.222656 105.5 273.625 C 106.800781 274.324219 107.398438 274.324219 107.699219 273.425781 C 107.898438 272.722656 108.699219 272.425781 109.398438 272.722656 C 110.101562 273.023438 111.199219 272.125 111.898438 270.824219 C 113.398438 268.023438 113 264.820312 111.398438 265.921875 Z M 123.601562 266.523438 C 123.898438 267.421875 124.699219 268.121094 125.199219 268.121094 C 126.5 268.121094 125.699219 265.820312 124.199219 265.320312 C 123.5 265.121094 123.199219 265.519531 123.601562 266.523438 Z M 136.300781 269.625 C 136.300781 271.824219 136.5 272.625 136.699219 271.324219 C 136.898438 270.125 136.898438 268.324219 136.699219 267.320312 C 136.398438 266.421875 136.199219 267.421875 136.300781 269.625 Z M 99 270.421875 C 99 271.925781 99.398438 273.125 99.898438 273.125 C 101.601562 273.125 101.800781 271.625 100.398438 269.625 C 99.101562 267.824219 99 267.824219 99 270.421875 Z M 139 270.023438 C 139 271.523438 139.5 271.824219 141.101562 271.425781 C 142.300781 271.125 143.601562 271.425781 144 272.125 C 145 273.824219 147 272.523438 147 270.023438 C 147 267.824219 146 267.621094 144.101562 269.324219 C 143 270.324219 142.699219 270.324219 142.300781 269.324219 C 141.601562 267.421875 139 267.921875 139 270.023438 Z M 87 271.625 C 87 272.425781 87.5 273.125 88 273.125 C 88.601562 273.125 89 272.425781 89 271.625 C 89 270.824219 88.601562 270.125 88 270.125 C 87.5 270.125 87 270.824219 87 271.625 Z M 128.601562 273.324219 C 127.800781 276.324219 127.898438 280.226562 128.699219 278.128906 C 129.101562 277.328125 129.898438 276.125 130.601562 275.625 C 131.699219 274.824219 131.699219 274.324219 130.601562 272.824219 C 129.300781 271.222656 129.199219 271.222656 128.601562 273.324219 Z M 120.101562 273.726562 C 120.101562 274.824219 120.398438 275.125 120.699219 274.324219 C 121 273.625 120.898438 272.722656 120.601562 272.425781 C 120.300781 272.023438 120 272.625 120.101562 273.726562 Z M 196.101562 275.027344 C 195.398438 276.226562 195.398438 277.226562 195.898438 277.625 C 196.398438 277.925781 197.199219 277.226562 197.5 276.027344 C 198.398438 273.226562 197.398438 272.425781 196.101562 275.027344 Z M 61.699219 288.53125 C 60.898438 290.632812 62 291.234375 63.601562 289.632812 C 65.398438 287.929688 65.398438 287.132812 63.601562 287.132812 C 62.800781 287.132812 62 287.730469 61.699219 288.53125 Z M 60.101562 293.734375 C 60.101562 294.835938 60.398438 295.132812 60.699219 294.335938 C 61 293.632812 60.898438 292.734375 60.601562 292.433594 C 60.300781 292.035156 60 292.632812 60.101562 293.734375 Z M 81.699219 292.832031 C 80.5 294.035156 81 295.035156 82.5 294.535156 C 83.300781 294.132812 84 293.535156 84 293.035156 C 84 291.933594 82.601562 291.832031 81.699219 292.832031 Z M 86 293.632812 C 87.199219 295.132812 89 294.835938 89 293.035156 C 89 292.535156 88 292.132812 86.898438 292.132812 C 85.101562 292.132812 85 292.332031 86 293.632812 Z M 111.300781 293.835938 C 109.5 294.535156 109.699219 298.136719 111.5 298.136719 C 112.398438 298.136719 113 297.234375 113 295.636719 C 113 294.234375 112.898438 293.132812 112.800781 293.234375 C 112.601562 293.234375 111.898438 293.535156 111.300781 293.835938 Z M 123.300781 297.136719 C 122.101562 301.835938 123.199219 302.4375 125 298.035156 C 125.800781 296.136719 125.898438 294.632812 125.300781 294.035156 C 124.800781 293.535156 124 294.632812 123.300781 297.136719 Z M 97 296.035156 C 97 298.535156 99 299.136719 101.199219 297.234375 C 103.300781 295.433594 102.601562 294.132812 99.398438 294.132812 C 97.699219 294.132812 97 294.734375 97 296.035156 Z M 78 297.234375 C 78 297.734375 78.5 297.9375 79 297.636719 C 79.601562 297.335938 80 296.835938 80 296.535156 C 80 296.335938 79.601562 296.136719 79 296.136719 C 78.5 296.136719 78 296.636719 78 297.234375 Z M 49.601562 319.847656 C 49.300781 320.246094 49 321.648438 49 323.148438 C 49 325.648438 49.699219 326.050781 60.898438 329.949219 C 67.5 332.25 73.5 334.152344 74.199219 334.152344 C 75 334.152344 76 334.554688 76.5 334.953125 C 77.101562 335.453125 82.199219 337.355469 88 339.15625 C 93.800781 340.957031 101.398438 343.457031 105 344.757812 C 108.601562 346.058594 112.199219 347.160156 112.898438 347.160156 C 114.699219 347.160156 123.800781 349.859375 131 352.460938 C 134 353.5625 138.398438 354.660156 140.699219 354.863281 C 143 355.164062 145.398438 355.960938 146 356.664062 C 146.898438 357.761719 146.300781 358.261719 143.398438 359.0625 C 140.300781 359.964844 139.300781 359.863281 137.800781 358.464844 C 136.199219 357.0625 136 357.0625 136 358.363281 C 136 360.0625 132.5 361.066406 124.300781 361.664062 C 121.398438 361.863281 117.800781 362.664062 116.300781 363.464844 C 114.800781 364.265625 110.800781 365.765625 107.5 366.765625 C 96.601562 370.070312 87.5 375.570312 79.5 383.675781 C 72.699219 390.476562 71.898438 391.679688 68.699219 398.980469 C 66.5 404.285156 66 406.785156 66 413.789062 C 66 420.992188 66.398438 423.191406 68.699219 427.996094 C 70.199219 431.097656 71.898438 434.296875 72.398438 435.097656 C 74.199219 437.300781 80.398438 443.503906 82.898438 445.503906 C 85.300781 447.402344 97.800781 455.207031 98.398438 455.207031 C 98.601562 455.207031 100.898438 456.207031 103.601562 457.410156 C 108.398438 459.609375 110.699219 460.308594 122.5 463.710938 C 134.898438 467.113281 138.898438 467.8125 161 470.113281 C 167.300781 470.816406 175.300781 471.714844 178.601562 472.316406 C 186.601562 473.515625 224.5 473.515625 232.398438 472.214844 C 238 471.316406 248.800781 470.316406 273 468.113281 C 278.199219 467.714844 284.101562 467.011719 286 466.714844 C 289.601562 466.113281 302.601562 464.210938 321.5 461.609375 C 327.601562 460.710938 334.800781 459.710938 337.5 459.210938 C 348.199219 457.308594 360.898438 455.207031 371 453.707031 C 376.800781 452.808594 383.101562 451.707031 385 451.207031 C 392.300781 449.503906 406.800781 447.203125 410.800781 447.203125 C 413 447.203125 415.101562 446.804688 415.398438 446.304688 C 415.699219 445.804688 417.5 445.101562 419.300781 444.804688 C 421.101562 444.503906 424.101562 442.800781 426 441 C 434.699219 433.097656 427.699219 423.894531 403.898438 411.886719 C 396.5 408.1875 390 405.183594 389.300781 405.183594 C 388.601562 405.183594 386.601562 404.585938 384.800781 403.785156 C 383 402.984375 379.898438 401.683594 377.800781 400.78125 C 375.800781 399.882812 373.5 399.183594 372.699219 399.183594 C 371.800781 399.183594 370.800781 398.683594 370.5 398.183594 C 370.199219 397.582031 369.101562 397.179688 368.199219 397.179688 C 367.300781 397.179688 363.601562 396.082031 360 394.878906 C 353.5 392.480469 347.601562 390.679688 336.5 387.675781 C 326.101562 384.875 323.800781 384.375 310 381.175781 C 302.601562 379.375 294.898438 377.671875 293 377.171875 C 287.398438 375.871094 278.398438 374.171875 259 370.769531 C 246.5 368.667969 244 367.96875 244 367.066406 C 244 365.867188 242.101562 365.96875 279.199219 365.667969 C 297.199219 365.46875 312.398438 365.066406 313 364.667969 C 314.699219 363.667969 314.199219 360.164062 312.300781 360.0625 C 311.300781 359.964844 292.300781 360.0625 270 360.164062 C 242.699219 360.265625 227.398438 359.964844 223.101562 359.164062 C 218.101562 358.261719 216.101562 358.261719 213.699219 359.265625 C 211.601562 360.164062 210.5 360.265625 210.300781 359.464844 C 210.101562 358.964844 209.300781 357.5625 208.5 356.5625 C 207.101562 354.761719 206.898438 354.761719 205.601562 356.363281 C 204.898438 357.363281 203.601562 358.164062 202.800781 358.164062 C 202 358.164062 200.898438 358.664062 200.199219 359.363281 C 199.398438 360.164062 198.699219 360.164062 197.699219 359.265625 C 196.898438 358.664062 193.199219 357.863281 189.601562 357.464844 C 185.898438 357.164062 182.699219 356.460938 182.398438 356.0625 C 182.101562 355.5625 180.101562 355.164062 177.898438 355.164062 C 175.800781 355.164062 174 354.761719 174 354.261719 C 174 353.761719 169.800781 353.0625 164.800781 352.660156 C 159.699219 352.261719 155.101562 351.660156 154.5 351.359375 C 154 350.960938 150.800781 350.058594 147.5 349.359375 C 137.199219 347.160156 133.699219 346.359375 127.5 344.65625 C 124.199219 343.757812 120.199219 342.65625 118.5 342.257812 C 115.300781 341.457031 108.898438 339.355469 105.5 338.15625 C 104.398438 337.753906 96.800781 335.253906 88.5 332.550781 C 80.300781 329.949219 73.101562 327.449219 72.5 327.148438 C 72 326.75 70.398438 326.148438 69 325.847656 C 66.300781 325.347656 59.199219 322.847656 52.800781 320.347656 C 51.398438 319.746094 49.898438 319.546875 49.601562 319.847656 Z M 153.398438 358.664062 C 153 359.464844 152.199219 360.164062 151.5 360.164062 C 150.800781 360.164062 150 359.464844 149.601562 358.664062 C 149.199219 357.5625 149.699219 357.164062 151.5 357.164062 C 153.300781 357.164062 153.800781 357.5625 153.398438 358.664062 Z M 184 367.167969 C 184 367.867188 184.699219 367.867188 186.199219 367.066406 C 188.699219 365.667969 199.699219 366.367188 212 368.667969 C 216.699219 369.570312 223 370.667969 226 371.167969 C 229 371.570312 235.601562 372.769531 240.5 373.671875 C 245.5 374.570312 251.800781 375.773438 254.5 376.273438 C 257.300781 376.671875 263.101562 377.773438 267.5 378.671875 C 271.898438 379.574219 278 380.671875 281 381.175781 C 287.398438 382.175781 295.199219 384.175781 296.199219 385.074219 C 296.601562 385.476562 296.300781 387.777344 295.5 390.378906 C 294.398438 394.179688 294.398438 395.28125 295.398438 396.082031 C 296.800781 397.28125 298.199219 394.878906 299.601562 388.777344 C 300.300781 385.976562 300.300781 385.976562 305.898438 386.578125 C 309 386.976562 312.898438 387.675781 314.5 388.175781 C 316.199219 388.675781 320.101562 389.777344 323.300781 390.679688 C 333 393.28125 340.398438 395.28125 343 396.179688 C 344.398438 396.582031 348.398438 397.78125 352 398.78125 C 355.601562 399.683594 358.898438 400.882812 359.398438 401.382812 C 360 401.785156 361.300781 402.183594 362.300781 402.183594 C 363.300781 402.183594 365.601562 402.785156 367.300781 403.585938 C 369.101562 404.285156 373.898438 406.183594 378 407.6875 C 386.699219 410.886719 389.398438 411.988281 397.300781 415.589844 C 400.5 416.992188 403.300781 418.191406 403.5 418.191406 C 403.800781 418.191406 406.300781 419.589844 409.199219 421.390625 C 415.300781 424.992188 422 431.597656 422 434 C 422 436.199219 419 439.199219 416.898438 439.199219 C 415.898438 439.199219 413.101562 439.601562 410.800781 440.199219 C 405.398438 441.402344 379.398438 446.203125 372 447.203125 C 369 447.703125 362.5 448.804688 357.5 449.707031 C 352.601562 450.605469 345.398438 451.707031 341.5 452.207031 C 337.699219 452.707031 333.398438 453.40625 332 453.808594 C 329.5 454.40625 325.101562 455.109375 309.5 457.109375 C 305.101562 457.707031 298.800781 458.609375 295.5 459.109375 C 288.601562 460.308594 265.398438 463.011719 256.5 463.710938 C 213.199219 467.011719 185.300781 466.914062 155.800781 463.3125 C 144.300781 461.910156 125 457.808594 121.800781 456.109375 C 120.800781 455.609375 119.398438 455.207031 118.5 455.207031 C 115.101562 455.207031 96 445.804688 88.800781 440.5 C 82.5 435.800781 76.101562 429.296875 76 427.496094 C 76 426.894531 75.699219 426.195312 75.300781 425.996094 C 73.101562 425.09375 71 418.589844 71 412.789062 C 71 405.386719 73.800781 399.28125 81 391.078125 C 92.101562 378.472656 106.898438 371.167969 128.5 367.769531 C 138.5 366.066406 184 365.667969 184 367.167969 Z M 184 367.167969 "/>
<path style=" stroke:none;fill-rule:nonzero;fill:rgb(0%,0%,0%);fill-opacity:1;" d="M 177.398438 380.875 C 176.398438 381.675781 173.5 390.179688 172.398438 395.78125 C 171.898438 398.480469 172.101562 399.082031 174 399.683594 C 177.300781 400.78125 183.199219 399.28125 185.300781 396.882812 C 186.601562 395.378906 187 393.78125 186.601562 391.777344 C 186.199219 389.878906 186.601562 387.976562 187.601562 386.375 C 189 384.277344 189 383.773438 187.699219 382.476562 C 186.101562 380.773438 179 379.671875 177.398438 380.875 Z M 184 385.175781 C 184 386.277344 183.601562 387.175781 183.101562 387.175781 C 182.601562 387.175781 181.5 387.476562 180.601562 387.777344 C 179.5 388.175781 179 387.777344 179 386.375 C 179 384.375 180.199219 383.375 182.800781 383.273438 C 183.398438 383.175781 184 384.074219 184 385.175781 Z M 182.5 392.179688 C 183.5 393.78125 180.601562 397.28125 178.5 396.980469 C 176.199219 396.582031 175.199219 393.28125 177.199219 392.078125 C 179 390.878906 181.699219 390.976562 182.5 392.179688 Z M 194.699219 380.875 C 193.5 381.972656 193.898438 383.175781 195.5 383.175781 C 196.300781 383.175781 197 382.476562 197 381.675781 C 197 380.074219 195.800781 379.671875 194.699219 380.875 Z M 192.5 387.375 C 189.300781 396.582031 188.898438 398.480469 190 399.582031 C 190.800781 400.382812 191.398438 400.183594 192.300781 398.683594 C 193.800781 395.980469 195.699219 388.777344 195.199219 387.375 C 194.699219 385.777344 193.101562 385.875 192.5 387.375 Z M 198.699219 391.078125 C 195.300781 400.882812 197.5 403.785156 201.5 394.679688 C 203.300781 390.679688 204.5 389.175781 206 389.175781 C 208.398438 389.175781 208.5 390.078125 206.5 394.878906 C 205.300781 397.78125 205.199219 398.683594 206.199219 399.28125 C 207.699219 400.183594 210 398.480469 210 396.480469 C 210 394.179688 213.300781 389.175781 214.800781 389.175781 C 215.800781 389.175781 216 390.378906 215.5 394.679688 C 214.898438 399.082031 215.101562 400.183594 216.199219 400.183594 C 218.101562 400.183594 221.398438 389.378906 220.101562 387.777344 C 219.398438 386.976562 215.601562 386.476562 209.800781 386.375 L 200.398438 386.277344 Z M 225.5 388.777344 C 223.398438 390.878906 223 392.179688 223.199219 395.480469 L 223.5 399.683594 L 228.601562 399.984375 L 233.800781 400.28125 L 235.398438 395.582031 C 237.5 389.175781 237.398438 387.476562 234.800781 386.777344 C 230.5 385.675781 228.101562 386.175781 225.5 388.777344 Z M 232.5 390.277344 C 232.898438 390.777344 232.601562 392.578125 232 394.28125 C 230.5 397.78125 226 398.480469 226 395.179688 C 226 391.277344 230.898438 387.578125 232.5 390.277344 Z M 242.300781 389.976562 C 238.898438 394.179688 238.398438 397.980469 240.898438 400.382812 C 242.101562 401.382812 244 402.183594 245.199219 401.984375 C 248 401.582031 248.800781 399.183594 246.101562 399.183594 C 244.699219 399.183594 244 398.582031 244 397.179688 C 244 395.78125 244.699219 395.179688 246.199219 395.179688 C 248.199219 395.179688 248.199219 395.082031 246.601562 393.28125 C 245.199219 391.679688 245.101562 391.277344 246.398438 390.277344 C 247.199219 389.578125 248.800781 389.277344 250 389.679688 C 251.398438 390.179688 252 389.878906 252 388.777344 C 252 387.578125 251 387.175781 248.300781 387.175781 C 245.398438 387.175781 244 387.878906 242.300781 389.976562 Z M 256.699219 389.578125 C 255.898438 390.476562 254.898438 392.480469 254.5 394.179688 C 254.101562 395.78125 253.398438 397.382812 252.898438 397.679688 C 251.5 398.582031 251.800781 402.183594 253.300781 402.183594 C 254 402.183594 255.101562 400.78125 255.699219 399.183594 C 256.300781 397.480469 257.5 396.179688 258.398438 396.179688 C 259.5 396.179688 260 397.082031 260 399.183594 C 260 402.984375 261.800781 402.984375 264.898438 399.183594 C 267.898438 395.378906 268.800781 395.378906 268.199219 399.183594 C 267.898438 401.382812 268.199219 402.183594 269.300781 402.183594 C 271.101562 402.183594 271.699219 400.683594 272.601562 394.378906 C 273.398438 387.777344 271.300781 386.777344 266.800781 391.679688 C 265.101562 393.578125 263.300781 395.179688 262.898438 395.179688 C 262.5 395.179688 262 393.679688 261.800781 391.980469 C 261.5 388.277344 259.101562 387.175781 256.699219 389.578125 Z M 278.5 390.578125 C 276.5 392.480469 275.898438 394.078125 275.800781 397.179688 C 275.699219 402.285156 276.101562 402.683594 281.101562 402.683594 C 285.898438 402.683594 288.800781 399.984375 289.601562 395.082031 C 290.699219 388.476562 283.800781 385.675781 278.5 390.578125 Z M 285.800781 393.980469 C 286.199219 396.78125 282.800781 400.484375 280.699219 399.582031 C 278.300781 398.683594 278.601562 395.28125 281.199219 392.980469 C 283.800781 390.777344 285.398438 391.078125 285.800781 393.980469 Z M 293.101562 399.480469 C 292.5 400.082031 292 400.984375 292 401.484375 C 292 402.683594 296.300781 401.882812 296.699219 400.582031 C 297.199219 398.980469 294.5 398.082031 293.101562 399.480469 Z M 104.398438 419.492188 C 103.199219 420.890625 99 433.699219 99 435.898438 C 99 436.800781 100.601562 437.199219 104.5 437.199219 C 109.199219 437.199219 110.5 436.800781 112.5 434.597656 C 114.5 432.496094 114.699219 431.695312 113.800781 429.695312 C 113 427.796875 113.101562 426.996094 114.398438 425.695312 C 116.5 423.59375 116.398438 421.894531 114.199219 419.890625 C 112 417.890625 106 417.691406 104.398438 419.492188 Z M 111 423.695312 C 111 425.695312 110.5 426.195312 108.5 426.195312 C 105.800781 426.195312 105.199219 424.394531 107.199219 422.394531 C 109.199219 420.390625 111 420.992188 111 423.695312 Z M 108.398438 429.796875 C 110.699219 430.695312 110.300781 433.097656 107.800781 434.097656 C 105.300781 435 103 434.5 103 433.097656 C 103 431.898438 105.199219 429.296875 106.199219 429.195312 C 106.5 429.195312 107.5 429.496094 108.398438 429.796875 Z M 206.5 420.191406 C 206.199219 420.691406 206.800781 421.691406 208 422.394531 C 211.199219 424.394531 210.5 426.195312 206.398438 426.195312 C 202.800781 426.195312 201.5 427.09375 199.300781 430.996094 C 196.398438 435.898438 198.398438 439.199219 204 439.199219 C 209.101562 439.199219 212.699219 435.296875 213.601562 428.59375 C 214.101562 424.09375 213.898438 423.09375 212.101562 421.292969 C 209.898438 419.089844 207.5 418.589844 206.5 420.191406 Z M 208.398438 429.796875 C 209 431.398438 207.5 435.199219 205.699219 436.398438 C 204.101562 437.398438 202 436.199219 202 434.296875 C 202 432.097656 204.800781 428.195312 206.398438 428.195312 C 207.199219 428.195312 208.101562 428.894531 208.398438 429.796875 Z M 227.699219 422.992188 C 226.699219 423.992188 226 425.496094 226 426.292969 C 226 427.09375 225.300781 429.496094 224.5 431.695312 C 223.699219 433.898438 223.101562 436.898438 223 438.398438 C 223 442.601562 225.300781 440.902344 227 435.5 C 229 429.296875 230.699219 428.996094 231.5 434.597656 C 232.699219 442.203125 237.5 443.402344 239.199219 436.597656 C 239.601562 435 240.601562 431.398438 241.300781 428.695312 C 242.101562 425.894531 242.601562 423.394531 242.300781 422.992188 C 241.601562 421.691406 239 423.394531 239 425.292969 C 239 427.996094 236.800781 432.296875 235.601562 431.898438 C 235 431.695312 234.398438 429.996094 234.199219 428.09375 C 233.898438 424.992188 231.601562 421.191406 230 421.191406 C 229.601562 421.191406 228.601562 421.992188 227.699219 422.992188 Z M 123 423.894531 C 120.898438 424.792969 119.601562 426.292969 117.699219 430.195312 C 116 433.496094 116 433.699219 117.898438 436.199219 C 118.898438 437.601562 120.398438 438.5 121.199219 438.300781 C 121.898438 438.101562 123.800781 437.800781 125.300781 437.601562 C 128.699219 437.300781 128.300781 437.800781 130.300781 432.398438 C 132.699219 426.292969 132.5 424.195312 129.601562 424.195312 C 128.300781 424.195312 126.601562 423.992188 125.800781 423.792969 C 125.101562 423.492188 123.800781 423.59375 123 423.894531 Z M 126.300781 430.695312 C 126.101562 433.796875 124.5 435.296875 122.300781 434.5 C 120.5 433.796875 120.699219 431.195312 122.699219 428.996094 C 124.898438 426.496094 126.5 427.296875 126.300781 430.695312 Z M 137.300781 424.394531 C 135.5 426.792969 133.800781 431.996094 134.199219 434.398438 C 134.5 436.597656 134.898438 436.699219 143 436.898438 C 153.101562 437.097656 155 436.699219 155 434.199219 C 155 433.199219 155.699219 431.097656 156.5 429.597656 C 157.300781 427.996094 158 426.09375 158 425.394531 C 158 423.59375 154.898438 424.292969 154 426.195312 C 151.199219 432.296875 150.199219 433.699219 148.699219 434 C 146.699219 434.398438 146.398438 431.195312 148.101562 428.09375 C 148.699219 426.894531 148.898438 425.394531 148.601562 424.59375 C 147.699219 422.292969 145.101562 424.195312 144.398438 427.796875 C 144.101562 429.695312 143.398438 431.195312 142.898438 431.195312 C 142.398438 431.195312 142 431.898438 142 432.796875 C 142 433.699219 141.300781 434.199219 140.300781 434 C 138.398438 433.597656 138.300781 432.898438 139.5 426.894531 C 140.199219 423.191406 139.199219 421.992188 137.300781 424.394531 Z M 267.199219 425.894531 C 264.898438 431.796875 265.300781 433.097656 270.300781 434.597656 C 274.398438 435.898438 270.398438 440.402344 266 439.5 C 263.699219 439.101562 263 439.300781 263 440.5 C 263 444.304688 270.300781 444.101562 274.199219 440.101562 C 276.398438 438 277.601562 437.398438 278.300781 438.101562 C 278.898438 438.699219 280.601562 439.199219 282.101562 439.199219 C 284 439.199219 285.101562 439.800781 285.5 441.203125 C 286.199219 443.503906 289 443.902344 289 441.703125 C 289 440.800781 289.601562 439.902344 290.398438 439.601562 C 291.300781 439.300781 291.800781 437.300781 291.898438 434.398438 C 292 431.796875 292.199219 428.394531 292.300781 426.695312 C 292.398438 424.695312 292 423.695312 290.898438 423.394531 C 289.101562 423.09375 283.101562 428.796875 280.199219 433.398438 C 278.199219 436.800781 276.800781 436.898438 275.5 433.898438 C 274.898438 432.699219 273.5 431.597656 272.199219 431.398438 C 270.5 431.097656 270 430.496094 270.199219 428.894531 C 270.398438 427.09375 271.300781 426.59375 274.300781 426.394531 C 279.601562 425.894531 278.5 423.792969 272.800781 423.394531 C 268.699219 423.09375 268.199219 423.292969 267.199219 425.894531 Z M 288 432.097656 C 288 434.296875 285.5 436.597656 284.101562 435.800781 C 282.300781 434.699219 284.898438 430.296875 287.300781 430.195312 C 287.699219 430.195312 288 430.996094 288 432.097656 Z M 299.101562 425.195312 C 297.300781 426.792969 296.898438 427.894531 297.300781 430.097656 C 297.699219 432.199219 297.300781 433.796875 296 435.5 C 293.101562 439.101562 293.5 441 297.398438 442.902344 C 300.601562 444.402344 301 444.402344 304.199219 442.503906 C 307.199219 440.703125 307.5 440.199219 307.300781 436 C 307.101562 432.699219 307.5 431.195312 308.5 430.796875 C 309.300781 430.496094 310 429.097656 310 427.796875 C 310 423.191406 303.398438 421.691406 299.101562 425.195312 Z M 305.398438 427.09375 C 306.300781 428.496094 305 431.195312 303.5 431.195312 C 302 431.195312 301.101562 429.296875 301.800781 427.394531 C 302.300781 425.996094 304.601562 425.792969 305.398438 427.09375 Z M 303.601562 436.699219 C 304.601562 439.101562 302.199219 441.402344 299.898438 440.101562 C 298.398438 439.300781 298.199219 438.699219 299 437.199219 C 300.300781 434.796875 302.800781 434.597656 303.601562 436.699219 Z M 169.199219 425.394531 C 168.5 426.09375 168 427.296875 168 428.09375 C 168 428.894531 167.5 431.097656 166.800781 432.898438 C 165.101562 437.5 167.101562 439.601562 169.5 435.800781 C 171.699219 432.496094 172.800781 432.496094 174 435.699219 C 174.5 437.097656 175.398438 438.199219 176 438.199219 C 177.601562 438.199219 178.300781 435.5 177.199219 433.597656 C 176.398438 432.199219 176.800781 430.996094 178.601562 428.59375 C 181.699219 424.59375 179.898438 422.792969 176.699219 426.59375 C 173.898438 429.796875 173.199219 429.796875 172.800781 426.996094 C 172.398438 424.394531 170.898438 423.695312 169.199219 425.394531 Z M 186 425.496094 C 181.199219 429.296875 179.699219 434.699219 182.800781 437.5 C 186.800781 441.101562 192.699219 438.398438 195.5 431.796875 C 196.898438 428.496094 196.898438 428.195312 194.800781 426.195312 C 192.398438 423.992188 188.300781 423.59375 186 425.496094 Z M 191.800781 430.097656 C 192.398438 434.199219 187 438.199219 185.601562 434.597656 C 184.699219 432.097656 184.898438 431.296875 187.101562 429.097656 C 189.5 426.695312 191.398438 426.996094 191.800781 430.097656 Z M 318.398438 426.195312 C 313.898438 427.996094 310.300781 438.101562 312.800781 441.800781 C 314 443.601562 317.699219 445.203125 320.898438 445.203125 C 324.898438 445.203125 328 441.800781 328 437.5 C 328 434.398438 327.800781 434.199219 324.5 434.199219 C 322.601562 434.199219 321 434.597656 321 435.199219 C 321 435.699219 321.398438 436.199219 321.898438 436.199219 C 323.398438 436.199219 324.101562 439.402344 322.898438 440.800781 C 320.300781 444.003906 316.101562 441.101562 316 436 C 316 434.296875 317 432.496094 319.101562 430.695312 C 321.800781 428.496094 322.800781 428.195312 326.601562 428.796875 C 329.5 429.195312 331 429.097656 331 428.296875 C 331 425.59375 323.101562 424.292969 318.398438 426.195312 Z M 338.398438 426.09375 C 335.300781 427.394531 331.898438 432.699219 331.300781 437 C 330 446.804688 343.699219 448.503906 348.5 439.199219 C 350.398438 435.5 350.398438 428.796875 348.601562 427.296875 C 346.699219 425.695312 341 424.992188 338.398438 426.09375 Z M 345.5 430.195312 C 346.898438 431.796875 347.101562 432.597656 346.101562 435.296875 C 344.601562 439.699219 342.199219 442.203125 339.398438 442.203125 C 333.5 442.203125 334.800781 431.398438 341 428.894531 C 343.398438 427.996094 343.601562 428.09375 345.5 430.195312 Z M 245.699219 427.996094 C 243.601562 430.296875 243.5 433.597656 245.601562 435.699219 C 248.800781 438.800781 255.398438 434.398438 254.800781 429.597656 C 254.5 427.09375 254 426.695312 250.898438 426.394531 C 248.5 426.195312 246.898438 426.695312 245.699219 427.996094 Z M 251.5 430.195312 C 252.300781 431.496094 250.199219 434.199219 248.398438 434.199219 C 247.601562 434.199219 247 433.199219 247 431.695312 C 247 429.894531 247.5 429.195312 248.898438 429.195312 C 250 429.195312 251.199219 429.695312 251.5 430.195312 Z M 356.300781 428.394531 C 354.300781 432.699219 351.699219 443.003906 352.300781 444.503906 C 353 446.304688 360.800781 447.804688 362.199219 446.402344 C 363.699219 444.902344 362.199219 443.203125 359.398438 443.203125 C 357.5 443.203125 357 442.703125 357 440.800781 C 357 438.398438 358.601562 437.199219 362.101562 437.199219 C 363.300781 437.199219 363.699219 436.699219 363.398438 435.699219 C 363 434.898438 361.898438 434.199219 360.898438 434.199219 C 359.898438 434.199219 359 433.496094 359 432.699219 C 359 431.097656 362.398438 428.894531 363.300781 429.894531 C 364.5 430.996094 367 429.296875 366.398438 427.695312 C 366 426.695312 364.398438 426.195312 361.601562 426.195312 C 358.199219 426.195312 357.101562 426.59375 356.300781 428.394531 Z M 242 440.101562 C 242 441.203125 244.5 442.203125 247.601562 442.203125 C 249.101562 442.203125 250 441.601562 250 440.703125 C 250 439.601562 248.898438 439.199219 246 439.199219 C 243.800781 439.199219 242 439.601562 242 440.101562 Z M 63 349.058594 C 63 350.261719 63.601562 351.160156 64.5 351.160156 C 65.300781 351.160156 66 350.761719 66 350.261719 C 66 349.757812 65.300781 348.859375 64.5 348.160156 C 63.199219 347.160156 63 347.257812 63 349.058594 Z M 57.5 350.261719 C 57.101562 351.359375 57.101562 352.5625 57.398438 352.859375 C 57.699219 353.261719 58 352.761719 58 351.859375 C 58 350.859375 58.5 350.160156 59 350.160156 C 59.601562 350.160156 60 349.660156 60 349.160156 C 60 347.359375 58.101562 348.160156 57.5 350.261719 Z M 225.601562 351.859375 C 225 353.261719 225.101562 353.363281 226.101562 352.460938 C 226.800781 351.761719 227.101562 350.960938 226.800781 350.660156 C 226.5 350.359375 225.898438 350.859375 225.601562 351.859375 Z M 73 353.960938 C 73 356.5625 72 357.261719 69.898438 356.0625 C 68.300781 355.261719 68 355.460938 68 357.0625 C 68 359.464844 71.898438 360.964844 73.101562 359.0625 C 74 357.5625 74.300781 352.160156 73.5 352.160156 C 73.199219 352.160156 73 352.960938 73 353.960938 Z M 106.300781 352.859375 C 104.398438 353.5625 104.699219 359.863281 106.601562 360.566406 C 108.601562 361.363281 113 360.265625 113 358.964844 C 113 358.464844 113.699219 357.363281 114.5 356.460938 C 115.398438 355.664062 115.898438 354.460938 115.699219 353.863281 C 115 351.660156 113.5 352.261719 112.199219 355.164062 C 110.5 358.964844 108.199219 359.0625 107.800781 355.363281 C 107.601562 353.5625 107 352.660156 106.300781 352.859375 Z M 93.5 354.160156 C 92.898438 355.164062 95.101562 359.164062 96.199219 359.164062 C 96.699219 359.164062 97 358.0625 97 356.761719 C 97 354.363281 94.5 352.460938 93.5 354.160156 Z M 195.601562 355.664062 C 196 356.460938 196.300781 357.164062 196.5 357.164062 C 196.699219 357.164062 197 356.460938 197.398438 355.664062 C 197.699219 354.761719 197.398438 354.160156 196.5 354.160156 C 195.601562 354.160156 195.300781 354.761719 195.601562 355.664062 Z M 77.601562 356.0625 C 76.699219 357.464844 78 360.164062 79.601562 360.164062 C 80.398438 360.164062 81 359.164062 81 357.664062 C 81 355.164062 78.699219 354.160156 77.601562 356.0625 Z M 62.101562 358.363281 C 62.101562 359.363281 61.601562 360.164062 61.101562 360.164062 C 59.199219 360.164062 59.199219 362.964844 61.101562 363.464844 C 63.5 364.066406 63.800781 363.464844 62.898438 359.664062 C 62.601562 357.964844 62.199219 357.464844 62.101562 358.363281 Z M 53.300781 359.765625 C 51.601562 361.566406 51.699219 363.164062 53.398438 363.164062 C 55.398438 363.164062 56.300781 361.464844 55.300781 359.765625 C 54.601562 358.5625 54.300781 358.5625 53.300781 359.765625 Z M 87 360.765625 C 87 363.867188 89.300781 363.566406 89.800781 360.363281 C 90 358.863281 89.601562 358.164062 88.601562 358.164062 C 87.5 358.164062 87 359.0625 87 360.765625 Z M 87 360.765625 "/>
</g>
</svg>
