<?xml version="1.0" standalone="no"?>
<!DOCTYPE svg PUBLIC "-//W3C//DTD SVG 20010904//EN"
 "http://www.w3.org/TR/2001/REC-SVG-20010904/DTD/svg10.dtd">
<svg version="1.0" xmlns="http://www.w3.org/2000/svg"
 width="678.000000pt" height="547.000000pt" viewBox="0 0 678.000000 547.000000"
 preserveAspectRatio="xMidYMid meet">

<g transform="translate(0.000000,547.000000) scale(0.100000,-0.100000)"
fill="#000000" stroke="none">
<path d="M680 3621 c0 -21 26 -27 43 -9 16 17 16 18 -13 18 -16 0 -30 -4 -30
-9z"/>
<path d="M3240 3610 c-12 -8 -10 -10 8 -10 13 0 20 4 17 10 -7 12 -6 12 -25 0z"/>
<path d="M1802 3597 c-6 -6 -13 -24 -17 -39 -4 -15 -14 -29 -23 -31 -15 -4
-15 -5 -1 -6 9 0 22 -12 29 -26 15 -28 35 -33 44 -10 4 11 -1 15 -19 15 -19 0
-25 5 -25 21 0 22 22 49 39 49 6 0 11 9 11 20 0 22 -22 27 -38 7z"/>
<path d="M2348 3587 c-11 -9 -14 -18 -8 -27 12 -20 62 3 54 25 -7 18 -23 19
-46 2z"/>
<path d="M3440 3580 c0 -11 7 -20 15 -20 8 0 15 9 15 20 0 11 -7 20 -15 20 -8
0 -15 -9 -15 -20z"/>
<path d="M3883 3569 c-13 -34 -10 -49 12 -49 7 0 15 -6 17 -12 9 -23 -3 -38
-28 -38 -28 0 -32 -15 -7 -24 10 -4 31 3 52 19 25 17 37 21 40 13 11 -33 56
-37 82 -7 23 27 35 87 22 108 -18 29 -49 24 -77 -12 -14 -19 -26 -39 -26 -46
0 -8 -9 -7 -30 4 -35 18 -39 35 -10 42 31 8 25 33 -8 33 -22 0 -30 -7 -39 -31z
m167 -27 c0 -39 -28 -76 -45 -62 -14 12 -12 26 8 68 15 31 37 28 37 -6z"/>
<path d="M3789 3588 c-1 -2 -3 -22 -3 -45 -1 -24 -10 -51 -20 -62 -21 -24 -14
-41 19 -41 20 0 24 6 28 48 3 26 7 58 9 72 2 17 -2 25 -14 28 -10 2 -19 2 -19
0z"/>
<path d="M1154 3563 c-1 -10 -4 -30 -9 -45 -10 -39 8 -35 23 4 9 26 9 35 -1
45 -10 11 -13 10 -13 -4z"/>
<path d="M1440 3563 c0 -12 3 -14 8 -7 4 7 18 14 32 17 21 4 20 4 -7 6 -25 1
-33 -3 -33 -16z"/>
<path d="M1905 3569 c-12 -18 3 -22 20 -5 14 14 14 16 1 16 -8 0 -18 -5 -21
-11z"/>
<path d="M1958 3550 c2 -16 6 -30 8 -30 2 0 4 14 4 30 0 17 -4 30 -8 30 -5 0
-7 -13 -4 -30z"/>
<path d="M2588 3573 c7 -3 16 -2 19 1 4 3 -2 6 -13 5 -11 0 -14 -3 -6 -6z"/>
<path d="M2888 3573 c7 -3 16 -2 19 1 4 3 -2 6 -13 5 -11 0 -14 -3 -6 -6z"/>
<path d="M2966 3564 c-9 -24 -8 -26 12 -15 10 6 28 7 40 4 25 -6 30 12 6 21
-28 11 -52 6 -58 -10z"/>
<path d="M3050 3565 c0 -8 7 -15 15 -15 8 0 15 7 15 15 0 8 -7 15 -15 15 -8 0
-15 -7 -15 -15z"/>
<path d="M4235 3563 c-38 -37 -46 -106 -16 -123 28 -14 38 -13 60 11 l20 21
22 -21 c28 -26 40 -26 68 -3 26 21 44 88 30 114 -12 22 -52 24 -69 3 -7 -8
-17 -15 -22 -15 -5 0 -16 7 -24 15 -20 20 -49 19 -69 -2z m47 -25 c9 -26 -8
-63 -30 -66 -17 -3 -22 2 -22 17 0 43 41 80 52 49z m110 -23 c-5 -48 -36 -73
-48 -40 -10 24 16 76 35 73 11 -3 15 -12 13 -33z"/>
<path d="M1256 3554 c-11 -30 -7 -42 14 -37 23 6 27 38 6 46 -8 3 -17 -1 -20
-9z"/>
<path d="M2100 3548 c0 -16 5 -28 10 -28 13 0 13 20 0 40 -8 12 -10 9 -10 -12z"/>
<path d="M1013 3544 c-9 -25 13 -40 26 -16 10 19 6 32 -11 32 -5 0 -11 -7 -15
-16z"/>
<path d="M1534 3545 c-7 -18 3 -35 21 -35 7 0 16 -6 18 -12 10 -25 7 10 -3 36
-11 29 -28 34 -36 11z"/>
<path d="M2201 3551 c-11 -7 -12 -15 -5 -31 9 -20 10 -20 21 10 12 31 8 36
-16 21z"/>
<path d="M2803 3530 c-11 -39 -6 -62 9 -36 5 9 8 29 6 44 -4 26 -4 26 -15 -8z"/>
<path d="M2141 3541 c-12 -8 -12 -12 2 -26 16 -15 17 -15 17 9 0 29 0 29 -19
17z"/>
<path d="M2260 3536 c0 -22 27 -27 33 -5 4 14 0 19 -14 19 -10 0 -19 -6 -19
-14z"/>
<path d="M2505 3535 c-3 -8 -7 -22 -10 -30 -8 -26 15 -16 25 11 12 32 12 34 0
34 -6 0 -13 -7 -15 -15z"/>
<path d="M774 3516 c-3 -15 -2 -32 3 -37 7 -7 13 -1 17 17 4 15 3 31 -3 37 -7
7 -12 1 -17 -17z"/>
<path d="M1354 3515 c-4 -8 -3 -23 0 -32 6 -14 9 -12 21 11 18 35 18 36 0 36
-9 0 -18 -7 -21 -15z"/>
<path d="M2941 3514 c0 -11 3 -14 6 -6 3 7 2 16 -1 19 -3 4 -6 -2 -5 -13z"/>
<path d="M885 3504 c-29 -13 -29 -13 25 -12 30 0 46 3 35 5 -11 3 -22 9 -25
13 -3 4 -18 1 -35 -6z"/>
<path d="M1672 3504 c-7 -8 -8 -14 -3 -14 10 0 25 19 20 25 -2 1 -10 -3 -17
-11z"/>
<path d="M1886 3497 c-9 -33 -8 -36 14 -30 23 6 25 19 6 38 -12 12 -15 11 -20
-8z"/>
<path d="M1420 3489 c0 -24 23 -21 28 4 2 10 -3 17 -12 17 -10 0 -16 -9 -16
-21z"/>
<path d="M2323 3495 c-15 -12 -15 -16 -4 -24 17 -11 51 -2 51 14 0 20 -26 25
-47 10z"/>
<path d="M2840 3490 c0 -15 7 -20 27 -20 l26 0 -23 20 c-13 11 -25 20 -27 20
-1 0 -3 -9 -3 -20z"/>
<path d="M3210 3485 c0 -8 7 -15 15 -15 8 0 15 7 15 15 0 8 -7 15 -15 15 -8 0
-15 -7 -15 -15z"/>
<path d="M4076 3454 c-4 -11 -1 -14 11 -12 9 2 18 9 21 16 6 18 -25 15 -32 -4z"/>
<path d="M641 2856 c-6 -7 -14 -35 -17 -62 l-7 -49 22 19 c15 13 18 23 11 30
-16 16 -12 37 12 57 16 14 17 19 6 19 -9 0 -21 -6 -27 -14z"/>
<path d="M696 2851 c-4 -6 -2 -11 3 -11 6 0 11 -8 12 -17 0 -10 3 -13 5 -6 8
18 -11 49 -20 34z"/>
<path d="M1645 2844 c-16 -12 -18 -18 -7 -34 9 -15 9 -25 0 -45 -6 -14 -15
-25 -20 -25 -4 0 -8 -7 -8 -15 0 -10 10 -15 29 -15 27 0 30 3 30 33 0 17 3 51
7 75 7 45 1 50 -31 26z"/>
<path d="M1865 2823 c-14 -15 -25 -36 -25 -46 0 -16 -2 -16 -30 -2 -34 18 -40
45 -10 45 11 0 20 5 20 10 0 6 -13 10 -28 10 -21 0 -33 -7 -43 -26 -12 -24
-12 -28 10 -45 28 -22 22 -49 -11 -49 -21 -1 -22 -1 -4 -11 14 -9 24 -7 47 10
34 25 42 26 59 6 35 -42 100 7 100 75 0 31 -4 39 -22 44 -34 9 -35 8 -63 -21z
m55 -37 c0 -35 -21 -63 -40 -51 -14 8 -13 41 2 65 20 31 38 24 38 -14z"/>
<path d="M2103 2812 c-30 -36 -32 -98 -3 -107 23 -7 60 2 60 16 0 14 26 11 40
-6 41 -49 127 36 105 104 -5 16 -15 21 -41 21 -19 0 -34 -4 -34 -9 0 -17 -34
-22 -46 -7 -17 25 -56 19 -81 -12z m173 -7 c9 -22 -18 -76 -36 -72 -28 5 -8
87 22 87 5 0 11 -7 14 -15z m-116 -12 c0 -38 -13 -63 -31 -63 -21 0 -25 29 -9
61 13 24 40 25 40 2z"/>
<path d="M787 2786 c1 -17 2 -37 2 -43 1 -7 6 -13 11 -13 15 0 12 77 -2 83 -9
3 -12 -5 -11 -27z"/>
<path d="M1114 2812 c-6 -4 -14 -17 -18 -29 -9 -28 -36 -30 -36 -4 0 25 -20
38 -30 21 -11 -17 2 -51 25 -65 13 -7 19 -7 22 2 2 7 10 10 17 7 7 -3 18 6 25
19 15 28 11 60 -5 49z"/>
<path d="M1236 2806 c3 -9 11 -16 16 -16 13 0 5 23 -10 28 -7 2 -10 -2 -6 -12z"/>
<path d="M1363 2775 c0 -22 2 -30 4 -17 2 12 2 30 0 40 -3 9 -5 -1 -4 -23z"/>
<path d="M990 2767 c0 -15 4 -27 9 -27 17 0 19 15 5 35 -13 18 -14 18 -14 -8z"/>
<path d="M1390 2771 c0 -15 5 -18 21 -14 12 3 25 0 29 -7 10 -17 30 -4 30 21
0 22 -10 24 -29 7 -11 -10 -14 -10 -18 0 -7 19 -33 14 -33 -7z"/>
<path d="M870 2755 c0 -8 5 -15 10 -15 6 0 10 7 10 15 0 8 -4 15 -10 15 -5 0
-10 -7 -10 -15z"/>
<path d="M1286 2738 c-8 -30 -7 -69 1 -48 4 8 12 20 19 25 11 8 11 13 0 28
-13 16 -14 16 -20 -5z"/>
<path d="M1201 2734 c0 -11 3 -14 6 -6 3 7 2 16 -1 19 -3 4 -6 -2 -5 -13z"/>
<path d="M1961 2721 c-7 -12 -7 -22 -2 -26 5 -3 13 4 16 16 9 28 -1 36 -14 10z"/>
<path d="M617 2586 c-8 -21 3 -27 19 -11 18 17 18 25 0 25 -8 0 -16 -6 -19
-14z"/>
<path d="M601 2534 c0 -11 3 -14 6 -6 3 7 2 16 -1 19 -3 4 -6 -2 -5 -13z"/>
<path d="M817 2543 c-12 -12 -7 -22 8 -17 8 4 15 10 15 15 0 11 -14 12 -23 2z"/>
<path d="M860 2535 c12 -15 30 -12 30 6 0 5 -10 9 -21 9 -18 0 -19 -2 -9 -15z"/>
<path d="M1113 2533 c-18 -7 -16 -43 2 -43 9 0 15 9 15 25 0 14 -1 25 -2 24
-2 0 -9 -3 -15 -6z"/>
<path d="M1233 2500 c-12 -47 -1 -53 17 -9 8 19 9 34 3 40 -5 5 -13 -6 -20
-31z"/>
<path d="M970 2511 c0 -25 20 -31 42 -12 21 18 14 31 -18 31 -17 0 -24 -6 -24
-19z"/>
<path d="M780 2499 c0 -5 5 -7 10 -4 6 3 10 8 10 11 0 2 -4 4 -10 4 -5 0 -10
-5 -10 -11z"/>
<path d="M496 2273 c-3 -4 -6 -18 -6 -33 0 -25 7 -29 119 -68 66 -23 126 -42
133 -42 8 0 18 -4 23 -8 6 -5 57 -24 115 -42 58 -18 134 -43 170 -56 36 -13
72 -24 79 -24 18 0 109 -27 181 -53 30 -11 74 -22 97 -24 23 -3 47 -11 53 -18
9 -11 3 -16 -26 -24 -31 -9 -41 -8 -56 6 -16 14 -18 14 -18 1 0 -17 -35 -27
-117 -33 -29 -2 -65 -10 -80 -18 -15 -8 -55 -23 -88 -33 -109 -33 -200 -88
-280 -169 -68 -68 -76 -80 -108 -153 -22 -53 -27 -78 -27 -148 0 -72 4 -94 27
-142 15 -31 32 -63 37 -71 18 -22 80 -84 105 -104 24 -19 149 -97 155 -97 2 0
25 -10 52 -22 48 -22 71 -29 189 -63 124 -34 164 -41 385 -64 63 -7 143 -16
176 -22 80 -12 459 -12 538 1 56 9 164 19 406 41 52 4 111 11 130 14 36 6 166
25 355 51 61 9 133 19 160 24 107 19 234 40 335 55 58 9 121 20 140 25 73 17
218 40 258 40 22 0 43 4 46 9 3 5 21 12 39 15 18 3 48 20 67 38 87 79 17 171
-221 291 -74 37 -139 67 -146 67 -7 0 -27 6 -45 14 -18 8 -49 21 -70 30 -20 9
-43 16 -51 16 -9 0 -19 5 -22 10 -3 6 -14 10 -23 10 -9 0 -46 11 -82 23 -65
24 -124 42 -235 72 -104 28 -127 33 -265 65 -74 18 -151 35 -170 40 -56 13
-146 30 -340 64 -125 21 -150 28 -150 37 0 12 -19 11 352 14 180 2 332 6 338
10 17 10 12 45 -7 46 -10 1 -200 0 -423 -1 -273 -1 -426 2 -469 10 -50 9 -70
9 -94 -1 -21 -9 -32 -10 -34 -2 -2 5 -10 19 -18 29 -14 18 -16 18 -29 2 -7
-10 -20 -18 -28 -18 -8 0 -19 -5 -26 -12 -8 -8 -15 -8 -25 1 -8 6 -45 14 -81
18 -37 3 -69 10 -72 14 -3 5 -23 9 -45 9 -21 0 -39 4 -39 9 0 5 -42 12 -92 16
-51 4 -97 10 -103 13 -5 4 -37 13 -70 20 -103 22 -138 30 -200 47 -33 9 -73
20 -90 24 -32 8 -96 29 -130 41 -11 4 -87 29 -170 56 -82 26 -154 51 -160 54
-5 4 -21 10 -35 13 -27 5 -98 30 -162 55 -14 6 -29 8 -32 5z m1038 -388 c-4
-8 -12 -15 -19 -15 -7 0 -15 7 -19 15 -4 11 1 15 19 15 18 0 23 -4 19 -15z
m306 -85 c0 -7 7 -7 22 1 25 14 135 7 258 -16 47 -9 110 -20 140 -25 30 -4 96
-16 145 -25 50 -9 113 -21 140 -26 28 -4 86 -15 130 -24 44 -9 105 -20 135
-25 64 -10 142 -30 152 -39 4 -4 1 -27 -7 -53 -11 -38 -11 -49 -1 -57 14 -12
28 12 42 73 7 28 7 28 63 22 31 -4 70 -11 86 -16 17 -5 56 -16 88 -25 97 -26
171 -46 197 -55 14 -4 54 -16 90 -26 36 -9 69 -21 74 -26 6 -4 19 -8 29 -8 10
0 33 -6 50 -14 18 -7 66 -26 107 -41 87 -32 114 -43 193 -79 32 -14 60 -26 62
-26 3 0 28 -14 57 -32 61 -36 128 -102 128 -126 0 -22 -30 -52 -51 -52 -10 0
-38 -4 -61 -10 -54 -12 -314 -60 -388 -70 -30 -5 -95 -16 -145 -25 -49 -9
-121 -20 -160 -25 -38 -5 -81 -12 -95 -16 -25 -6 -69 -13 -225 -33 -44 -6
-107 -15 -140 -20 -69 -12 -301 -39 -390 -46 -433 -33 -712 -32 -1007 4 -115
14 -308 55 -340 72 -10 5 -24 9 -33 9 -34 0 -225 94 -297 147 -63 47 -127 112
-128 130 0 6 -3 13 -7 15 -22 9 -43 74 -43 132 0 74 28 135 100 217 111 126
259 199 475 233 100 17 555 21 555 6z"/>
<path d="M1774 1663 c-10 -8 -39 -93 -50 -149 -5 -27 -3 -33 16 -39 33 -11 92
4 113 28 13 15 17 31 13 51 -4 19 0 38 10 54 14 21 14 26 1 39 -16 17 -87 28
-103 16z m66 -43 c0 -11 -4 -20 -9 -20 -5 0 -16 -3 -25 -6 -11 -4 -16 0 -16
14 0 20 12 30 38 31 6 1 12 -8 12 -19z m-15 -70 c10 -16 -19 -51 -40 -48 -23
4 -33 37 -13 49 18 12 45 11 53 -1z"/>
<path d="M1947 1663 c-12 -11 -8 -23 8 -23 8 0 15 7 15 15 0 16 -12 20 -23 8z"/>
<path d="M1925 1598 c-32 -92 -36 -111 -25 -122 8 -8 14 -6 23 9 15 27 34 99
29 113 -5 16 -21 15 -27 0z"/>
<path d="M1987 1561 c-34 -98 -12 -127 28 -36 18 40 30 55 45 55 24 0 25 -9 5
-57 -12 -29 -13 -38 -3 -44 15 -9 38 8 38 28 0 23 33 73 48 73 10 0 12 -12 7
-55 -6 -44 -4 -55 7 -55 19 0 52 108 39 124 -7 8 -45 13 -103 14 l-94 1 -17
-48z"/>
<path d="M2255 1584 c-21 -21 -25 -34 -23 -67 l3 -42 51 -3 52 -3 16 47 c21
64 20 81 -6 88 -43 11 -67 6 -93 -20z m70 -15 c4 -5 1 -23 -5 -40 -15 -35 -60
-42 -60 -9 0 39 49 76 65 49z"/>
<path d="M2423 1572 c-34 -42 -39 -80 -14 -104 12 -10 31 -18 43 -16 28 4 36
28 9 28 -14 0 -21 6 -21 20 0 14 7 20 22 20 20 0 20 1 4 19 -14 16 -15 20 -2
30 8 7 24 10 36 6 14 -5 20 -2 20 9 0 12 -10 16 -37 16 -29 0 -43 -7 -60 -28z"/>
<path d="M2567 1576 c-8 -9 -18 -29 -22 -46 -4 -16 -11 -32 -16 -35 -14 -9
-11 -45 4 -45 7 0 18 14 24 30 6 17 18 30 27 30 11 0 16 -9 16 -30 0 -38 18
-38 49 0 30 38 39 38 33 0 -3 -22 0 -30 11 -30 18 0 24 15 33 78 8 66 -13 76
-58 27 -17 -19 -35 -35 -39 -35 -4 0 -9 15 -11 32 -3 37 -27 48 -51 24z"/>
<path d="M2785 1566 c-20 -19 -26 -35 -27 -66 -1 -51 3 -55 53 -55 48 0 77 27
85 76 11 66 -58 94 -111 45z m73 -34 c4 -28 -30 -65 -51 -56 -24 9 -21 43 5
66 26 22 42 19 46 -10z"/>
<path d="M2931 1477 c-6 -6 -11 -15 -11 -20 0 -12 43 -4 47 9 5 16 -22 25 -36
11z"/>
<path d="M1044 1277 c-12 -14 -54 -142 -54 -164 0 -9 16 -13 55 -13 47 0 60 4
80 26 20 21 22 29 13 49 -8 19 -7 27 6 40 21 21 20 38 -2 58 -22 20 -82 22
-98 4z m66 -42 c0 -20 -5 -25 -25 -25 -27 0 -33 18 -13 38 20 20 38 14 38 -13z
m-26 -61 c23 -9 19 -33 -6 -43 -25 -9 -48 -4 -48 10 0 12 22 38 32 39 3 0 13
-3 22 -6z"/>
<path d="M2065 1270 c-3 -5 3 -15 15 -22 32 -20 25 -38 -16 -38 -36 0 -49 -9
-71 -48 -29 -49 -9 -82 47 -82 51 0 87 39 96 106 5 45 3 55 -15 73 -22 22 -46
27 -56 11z m19 -96 c6 -16 -9 -54 -27 -66 -16 -10 -37 2 -37 21 0 22 28 61 44
61 8 0 17 -7 20 -16z"/>
<path d="M2277 1242 c-10 -10 -17 -25 -17 -33 0 -8 -7 -32 -15 -54 -8 -22 -14
-52 -15 -67 0 -42 23 -25 40 29 20 62 37 65 45 9 12 -76 60 -88 77 -20 4 16
14 52 21 79 8 28 13 53 10 57 -7 13 -33 -4 -33 -23 0 -27 -22 -70 -34 -66 -6
2 -12 19 -14 38 -3 31 -26 69 -42 69 -4 0 -14 -8 -23 -18z"/>
<path d="M1230 1233 c-21 -9 -34 -24 -53 -63 -17 -33 -17 -35 2 -60 10 -14 25
-23 33 -21 7 2 26 5 41 7 34 3 30 -2 50 52 24 61 22 82 -7 82 -13 0 -30 2 -38
4 -7 3 -20 2 -28 -1z m33 -68 c-2 -31 -18 -46 -40 -38 -18 7 -16 33 4 55 22
25 38 17 36 -17z"/>
<path d="M1373 1228 c-18 -24 -35 -76 -31 -100 3 -22 7 -23 88 -25 101 -2 120
2 120 27 0 10 7 31 15 46 8 16 15 35 15 42 0 18 -31 11 -40 -8 -28 -61 -38
-75 -53 -78 -20 -4 -23 28 -6 59 6 12 8 27 5 35 -9 23 -35 4 -42 -32 -3 -19
-10 -34 -15 -34 -5 0 -9 -7 -9 -16 0 -9 -7 -14 -17 -12 -19 4 -20 11 -8 71 7
37 -3 49 -22 25z"/>
<path d="M2672 1213 c-23 -59 -19 -72 31 -87 41 -13 1 -58 -43 -49 -23 4 -30
2 -30 -10 0 -38 73 -36 112 4 22 21 34 27 41 20 6 -6 23 -11 38 -11 19 0 30
-6 34 -20 7 -23 35 -27 35 -5 0 9 6 18 14 21 9 3 14 23 15 52 1 26 3 60 4 77
1 20 -3 30 -14 33 -18 3 -78 -54 -107 -100 -20 -34 -34 -35 -47 -5 -6 12 -20
23 -33 25 -17 3 -22 9 -20 25 2 18 11 23 41 25 53 5 42 26 -15 30 -41 3 -46 1
-56 -25z m208 -62 c0 -22 -25 -45 -39 -37 -18 11 8 55 32 56 4 0 7 -8 7 -19z"/>
<path d="M2991 1220 c-18 -16 -22 -27 -18 -49 4 -21 0 -37 -13 -54 -29 -36
-25 -55 14 -74 32 -15 36 -15 68 4 30 18 33 23 31 65 -2 33 2 48 12 52 8 3 15
17 15 30 0 46 -66 61 -109 26z m63 -19 c9 -14 -4 -41 -19 -41 -15 0 -24 19
-17 38 5 14 28 16 36 3z m-18 -96 c10 -24 -14 -47 -37 -34 -15 8 -17 14 -9 29
13 24 38 26 46 5z"/>
<path d="M1692 1218 c-7 -7 -12 -19 -12 -27 0 -8 -5 -30 -12 -48 -17 -46 3
-67 27 -29 22 33 33 33 45 1 5 -14 14 -25 20 -25 16 0 23 27 12 46 -8 14 -4
26 14 50 31 40 13 58 -19 20 -28 -32 -35 -32 -39 -4 -4 26 -19 33 -36 16z"/>
<path d="M1860 1217 c-48 -38 -63 -92 -32 -120 40 -36 99 -9 127 57 14 33 14
36 -7 56 -24 22 -65 26 -88 7z m58 -46 c6 -41 -48 -81 -62 -45 -9 25 -7 33 15
55 24 24 43 21 47 -10z"/>
<path d="M3184 1210 c-45 -18 -81 -119 -56 -156 12 -18 49 -34 81 -34 40 0 71
34 71 77 0 31 -2 33 -35 33 -19 0 -35 -4 -35 -10 0 -5 4 -10 9 -10 15 0 22
-32 10 -46 -26 -32 -68 -3 -69 48 0 17 10 35 31 53 27 22 37 25 75 19 29 -4
44 -3 44 5 0 27 -79 40 -126 21z"/>
<path d="M3384 1211 c-31 -13 -65 -66 -71 -109 -13 -98 124 -115 172 -22 19
37 19 104 1 119 -19 16 -76 23 -102 12z m71 -41 c14 -16 16 -24 6 -51 -15 -44
-39 -69 -67 -69 -59 0 -46 108 16 133 24 9 26 8 45 -13z"/>
<path d="M2457 1192 c-21 -23 -22 -56 -1 -77 32 -31 98 13 92 61 -3 25 -8 29
-39 32 -24 2 -40 -3 -52 -16z m58 -22 c8 -13 -13 -40 -31 -40 -8 0 -14 10 -14
25 0 18 5 25 19 25 11 0 23 -5 26 -10z"/>
<path d="M3563 1188 c-20 -43 -46 -146 -40 -161 7 -18 85 -33 99 -19 15 15 0
32 -28 32 -19 0 -24 5 -24 24 0 24 16 36 51 36 12 0 16 5 13 15 -4 8 -15 15
-25 15 -10 0 -19 7 -19 15 0 16 34 38 43 28 12 -11 37 6 31 22 -4 10 -20 15
-48 15 -34 0 -45 -4 -53 -22z"/>
<path d="M2420 1071 c0 -11 25 -21 56 -21 15 0 24 6 24 15 0 11 -11 15 -40 15
-22 0 -40 -4 -40 -9z"/>
<path d="M630 1981 c0 -12 6 -21 15 -21 8 0 15 4 15 9 0 5 -7 14 -15 21 -13
10 -15 9 -15 -9z"/>
<path d="M575 1969 c-4 -11 -4 -23 -1 -26 3 -4 6 1 6 10 0 10 5 17 10 17 6 0
10 5 10 10 0 18 -19 10 -25 -11z"/>
<path d="M2256 1953 c-6 -14 -5 -15 5 -6 7 7 10 15 7 18 -3 3 -9 -2 -12 -12z"/>
<path d="M730 1932 c0 -26 -10 -33 -31 -21 -16 8 -19 6 -19 -10 0 -24 39 -39
51 -20 9 15 12 69 4 69 -3 0 -5 -8 -5 -18z"/>
<path d="M1063 1943 c-19 -7 -16 -70 3 -77 20 -8 64 3 64 16 0 5 7 16 15 25 9
8 14 20 12 26 -7 22 -22 16 -35 -13 -17 -38 -40 -39 -44 -2 -2 18 -8 27 -15
25z"/>
<path d="M935 1930 c-6 -10 16 -50 27 -50 5 0 8 11 8 24 0 24 -25 43 -35 26z"/>
<path d="M1956 1915 c4 -8 7 -15 9 -15 2 0 5 7 9 15 3 9 0 15 -9 15 -9 0 -12
-6 -9 -15z"/>
<path d="M776 1911 c-9 -14 4 -41 20 -41 8 0 14 10 14 25 0 25 -23 35 -34 16z"/>
<path d="M621 1888 c0 -10 -5 -18 -10 -18 -19 0 -19 -28 0 -33 24 -6 27 0 18
38 -3 17 -7 22 -8 13z"/>
<path d="M533 1874 c-17 -18 -16 -34 1 -34 20 0 29 17 19 34 -7 12 -10 12 -20
0z"/>
<path d="M870 1864 c0 -31 23 -28 28 4 2 15 -2 22 -12 22 -11 0 -16 -9 -16
-26z"/>
</g>
</svg>
