<?xml version="1.0" standalone="no"?>
<!DOCTYPE svg PUBLIC "-//W3C//DTD SVG 20010904//EN"
 "http://www.w3.org/TR/2001/REC-SVG-20010904/DTD/svg10.dtd">
<svg version="1.0" xmlns="http://www.w3.org/2000/svg"
 width="877.000000pt" height="530.000000pt" viewBox="0 0 877.000000 530.000000"
 preserveAspectRatio="xMidYMid meet">

<g transform="translate(0.000000,530.000000) scale(0.100000,-0.100000)"
fill="#000000" stroke="none">
<path d="M6176 5180 c-10 -44 -24 -111 -181 -860 -85 -404 -197 -937 -250
-1185 -52 -247 -95 -456 -95 -464 0 -11 4 -11 19 3 23 21 33 60 131 541 115
560 374 1796 405 1931 2 11 -2 29 -9 40 -14 18 -15 18 -20 -6z"/>
<path d="M3036 4966 c3 -7 26 -16 52 -20 50 -7 956 -76 998 -76 21 0 44 24 33
34 -3 3 -980 72 -1061 75 -20 1 -26 -3 -22 -13z"/>
<path d="M4041 4773 c-41 -155 -61 -246 -56 -251 3 -3 7 -3 8 -1 10 12 73 289
66 289 -4 0 -13 -17 -18 -37z"/>
<path d="M1677 4683 c-14 -13 -6 -33 12 -33 19 0 35 23 24 34 -8 8 -28 8 -36
-1z"/>
<path d="M1650 4590 c0 -13 7 -20 20 -20 13 0 20 7 20 20 0 13 -7 20 -20 20
-13 0 -20 -7 -20 -20z"/>
<path d="M3570 4208 c-30 -15 -52 -37 -67 -63 -38 -68 -39 -113 -8 -235 12
-43 60 -72 160 -95 56 -13 190 -15 200 -3 1 2 22 88 47 191 42 176 44 188 27
197 -28 16 -39 12 -49 -16 -12 -31 -78 -114 -91 -114 -5 0 -9 7 -9 17 0 36
-52 105 -93 124 -54 24 -64 24 -117 -3z m90 -30 c23 -39 25 -76 7 -121 -17
-39 -33 -53 -71 -63 l-29 -7 5 66 c3 48 10 75 26 97 22 30 22 30 2 30 -24 0
-57 -50 -66 -100 -9 -46 -15 -55 -25 -39 -26 41 3 118 54 149 47 29 74 26 97
-12z"/>
<path d="M1506 4063 c-14 -15 -5 -43 14 -43 13 0 20 7 20 19 0 19 -23 35 -34
24z"/>
<path d="M4285 3994 c-13 -65 -49 -118 -94 -141 -42 -21 -53 -22 -171 -16 -91
4 -129 3 -134 -6 -5 -8 33 -11 146 -11 135 0 157 2 186 20 41 25 70 72 78 128
7 48 -2 70 -11 26z"/>
<path d="M1470 3935 c0 -30 25 -34 39 -6 12 21 5 31 -21 31 -13 0 -18 -7 -18
-25z"/>
<path d="M1599 3689 c-16 -17 -34 -50 -40 -72 -13 -48 -4 -146 14 -164 7 -7
49 -15 94 -19 l82 -7 16 57 c25 84 11 151 -43 209 -37 39 -84 37 -123 -4z
m137 -43 c22 -44 12 -100 -21 -122 -32 -21 -61 -5 -74 41 -25 91 57 161 95 81z"/>
<path d="M1634 3396 c16 -8 38 -11 50 -8 19 5 19 6 0 13 -10 4 -32 8 -49 7
l-30 0 29 -12z"/>
<path d="M7283 3336 c-16 -13 -35 -35 -42 -49 l-14 -26 -29 30 c-22 22 -39 29
-68 29 -20 0 -42 -6 -47 -12 -14 -20 -46 -234 -39 -263 7 -26 58 -65 87 -65 9
0 33 11 54 25 20 15 38 25 40 23 1 -2 10 -18 19 -36 18 -35 69 -72 99 -72 60
0 122 88 132 190 l5 55 -15 -40 c-17 -44 -49 -82 -76 -90 -28 -9 -75 21 -93
59 -39 82 -28 185 24 238 24 24 26 28 10 28 -10 0 -31 -11 -47 -24z m-120
-123 c-8 -82 -23 -97 -42 -43 -15 44 3 85 40 89 4 1 4 -20 2 -46z"/>
<path d="M4607 2713 c8 -21 61 -130 118 -243 l103 -205 143 -35 c79 -19 149
-35 154 -35 6 0 10 14 10 30 0 29 -2 30 -45 32 -25 2 -73 5 -107 9 l-62 5
-162 240 c-89 131 -163 239 -165 239 -2 0 4 -17 13 -37z"/>
<path d="M5226 2576 c-31 -132 -31 -126 -8 -126 15 0 23 20 43 114 23 106 24
115 8 119 -14 4 -21 -14 -43 -107z"/>
<path d="M3505 2528 c-44 -15 -90 -28 -102 -28 -16 0 -23 -6 -23 -20 0 -11 6
-20 13 -20 12 0 217 77 225 84 1 2 -5 5 -15 8 -10 2 -54 -8 -98 -24z"/>
<path d="M3275 2314 c17 -15 54 -49 84 -75 l54 -48 -45 -28 c-24 -15 -68 -39
-96 -52 -60 -28 -66 -41 -19 -41 35 0 216 -46 341 -86 125 -40 128 -35 40 81
-42 55 -89 113 -105 130 l-28 29 -27 -24 c-15 -14 -25 -20 -22 -15 3 6 -42 43
-101 83 -58 40 -92 60 -76 46z"/>
<path d="M6347 2240 c-3 -14 -9 -49 -12 -78 -5 -42 -3 -53 7 -50 17 6 30 100
19 130 l-9 23 -5 -25z"/>
<path d="M5289 2201 l-44 -39 25 -10 c14 -5 38 -12 53 -16 l28 -7 -7 53 c-4
29 -8 54 -9 56 -1 1 -22 -15 -46 -37z"/>
<path d="M4472 2092 c-71 -29 -67 -39 18 -44 l54 -3 3 38 c3 20 1 37 -4 36 -4
0 -36 -13 -71 -27z"/>
<path d="M3115 2010 c-4 -13 -3 -25 4 -29 17 -11 2 -72 -16 -69 -8 2 -22 -7
-30 -19 -14 -20 -14 -23 0 -23 8 0 20 6 27 14 14 18 37 11 43 -12 3 -10 3 17
0 58 -6 86 -17 116 -28 80z"/>
<path d="M2085 1931 c39 -39 70 -74 70 -78 -1 -4 -4 -68 -9 -141 -8 -130 -9
-132 -33 -138 -57 -15 -168 8 -587 120 -109 30 -174 43 -184 37 -13 -7 -12 -9
4 -14 70 -22 585 -149 654 -162 l86 -17 194 56 c107 31 196 58 197 60 8 8
-432 346 -451 346 -6 0 21 -31 59 -69z"/>
<path d="M3015 1833 c-24 -6 -51 -25 -175 -122 -52 -41 -125 -94 -163 -119
l-67 -45 16 -26 c48 -73 52 -75 225 -85 140 -9 159 -12 165 -28 3 -10 8 -18
12 -18 4 0 34 -5 67 -10 33 -6 278 -44 545 -85 608 -94 439 -68 1670 -255 580
-88 1102 -167 1159 -176 87 -13 105 -14 112 -3 7 12 13 48 11 70 0 3 3 23 8
44 9 41 8 45 -150 327 -8 15 -56 103 -107 195 -51 92 -96 174 -100 182 -7 11
-13 8 -26 -13 -18 -26 -17 -28 6 -69 14 -23 61 -109 106 -191 l81 -149 -19
-31 c-11 -17 -31 -42 -44 -55 l-25 -23 -101 19 c-56 11 -101 18 -101 16 0 -2
6 -19 14 -37 l14 -34 -102 -7 c-56 -4 -230 -5 -386 -2 -313 5 -376 14 -416 60
-23 27 -34 26 -34 -5 0 -10 -4 -18 -10 -18 -5 0 -64 18 -132 39 -365 116 -687
206 -697 196 -2 -3 1 -16 7 -29 8 -18 21 -25 58 -31 l47 -7 -44 -44 c-52 -53
-64 -54 -234 -19 -75 15 -154 25 -210 25 -165 0 -358 32 -485 80 -41 15 -101
33 -133 40 -100 20 -138 77 -193 285 -22 85 -23 87 -24 43 l0 -47 -57 -6 c-32
-4 -102 -13 -156 -19 l-98 -13 43 46 c24 25 67 72 98 104 30 31 52 56 50 56
-3 -1 -14 -4 -25 -6z m3487 -746 c36 -67 65 -124 63 -126 -2 -2 -67 3 -144 10
-126 11 -143 15 -163 36 l-22 23 34 -12 c32 -11 35 -10 66 26 18 21 45 67 60
102 16 35 31 64 34 64 3 0 35 -55 72 -123z"/>
<path d="M4445 1739 c-4 -6 -5 -12 -2 -15 2 -3 7 2 10 11 7 17 1 20 -8 4z"/>
<path d="M4431 1703 c-1 -6 -4 -20 -7 -30 -5 -17 -5 -17 6 0 6 10 9 23 6 30
-3 9 -5 9 -5 0z"/>
<path d="M5980 1530 c0 -9 100 -23 108 -15 3 3 3 7 1 9 -8 7 -109 13 -109 6z"/>
<path d="M8417 146 l-328 -141 55 -3 c52 -3 74 5 336 119 217 95 280 126 280
140 0 10 -3 20 -7 22 -5 2 -156 -60 -336 -137z"/>
</g>
</svg>
