<?xml version="1.0" encoding="UTF-8"?>
<svg xmlns="http://www.w3.org/2000/svg" xmlns:xlink="http://www.w3.org/1999/xlink" width="876pt" height="530pt" viewBox="0 0 876 530" version="1.1">
<g id="surface1">
<path style=" stroke:none;fill-rule:nonzero;fill:rgb(0%,0%,0%);fill-opacity:1;" d="M 617.070312 11.996094 C 616.074219 16.390625 614.671875 23.089844 598.988281 97.953125 C 590.496094 138.335938 579.304688 191.609375 574.007812 216.398438 C 568.8125 241.085938 564.515625 261.976562 564.515625 262.777344 C 564.515625 263.875 564.917969 263.875 566.414062 262.476562 C 568.714844 260.378906 569.710938 256.480469 579.503906 208.402344 C 590.992188 152.429688 616.871094 28.886719 619.96875 15.394531 C 620.167969 14.292969 619.769531 12.496094 619.070312 11.394531 C 617.671875 9.59375 617.570312 9.59375 617.070312 11.996094 Z M 303.339844 33.382812 C 303.640625 34.085938 305.9375 34.984375 308.535156 35.382812 C 313.53125 36.082031 404.054688 42.980469 408.25 42.980469 C 410.347656 42.980469 412.648438 40.582031 411.546875 39.582031 C 411.246094 39.28125 313.632812 32.386719 305.539062 32.085938 C 303.539062 31.984375 302.941406 32.386719 303.339844 33.382812 Z M 403.753906 52.675781 C 399.65625 68.167969 397.660156 77.265625 398.160156 77.761719 C 398.457031 78.0625 398.859375 78.0625 398.957031 77.863281 C 399.957031 76.664062 406.253906 48.976562 405.550781 48.976562 C 405.152344 48.976562 404.253906 50.675781 403.753906 52.675781 Z M 167.554688 61.671875 C 166.15625 62.96875 166.957031 64.96875 168.753906 64.96875 C 170.652344 64.96875 172.253906 62.671875 171.152344 61.570312 C 170.355469 60.773438 168.355469 60.773438 167.554688 61.671875 Z M 164.859375 70.964844 C 164.859375 72.265625 165.558594 72.964844 166.855469 72.964844 C 168.15625 72.964844 168.855469 72.265625 168.855469 70.964844 C 168.855469 69.667969 168.15625 68.96875 166.855469 68.96875 C 165.558594 68.96875 164.859375 69.667969 164.859375 70.964844 Z M 356.695312 109.148438 C 353.695312 110.648438 351.5 112.847656 350 115.445312 C 346.203125 122.242188 346.105469 126.742188 349.199219 138.933594 C 350.398438 143.234375 355.195312 146.132812 365.1875 148.429688 C 370.78125 149.730469 384.171875 149.929688 385.171875 148.730469 C 385.269531 148.53125 387.367188 139.933594 389.867188 129.640625 C 394.0625 112.046875 394.261719 110.847656 392.5625 109.949219 C 389.765625 108.347656 388.667969 108.75 387.667969 111.546875 C 386.46875 114.644531 379.875 122.941406 378.574219 122.941406 C 378.078125 122.941406 377.675781 122.242188 377.675781 121.242188 C 377.675781 117.644531 372.480469 110.746094 368.382812 108.847656 C 362.988281 106.449219 361.988281 106.449219 356.695312 109.148438 Z M 365.6875 112.148438 C 367.984375 116.046875 368.183594 119.742188 366.386719 124.242188 C 364.6875 128.140625 363.089844 129.539062 359.292969 130.539062 L 356.394531 131.238281 L 356.894531 124.640625 C 357.195312 119.84375 357.894531 117.144531 359.492188 114.945312 C 361.691406 111.949219 361.691406 111.949219 359.691406 111.949219 C 357.292969 111.949219 353.996094 116.945312 353.097656 121.941406 C 352.199219 126.539062 351.597656 127.441406 350.601562 125.839844 C 348.003906 121.742188 350.898438 114.046875 355.996094 110.949219 C 360.691406 108.050781 363.390625 108.347656 365.6875 112.148438 Z M 150.472656 123.640625 C 149.074219 125.140625 149.972656 127.941406 151.871094 127.941406 C 153.167969 127.941406 153.867188 127.238281 153.867188 126.039062 C 153.867188 124.140625 151.570312 122.542969 150.472656 123.640625 Z M 428.132812 130.539062 C 426.835938 137.035156 423.238281 142.332031 418.742188 144.632812 C 414.546875 146.730469 413.445312 146.832031 401.65625 146.230469 C 392.5625 145.832031 388.765625 145.929688 388.265625 146.832031 C 387.769531 147.628906 391.566406 147.929688 402.855469 147.929688 C 416.34375 147.929688 418.542969 147.730469 421.4375 145.929688 C 425.535156 143.433594 428.433594 138.734375 429.230469 133.136719 C 429.933594 128.339844 429.03125 126.140625 428.132812 130.539062 Z M 146.875 136.4375 C 146.875 139.433594 149.371094 139.835938 150.769531 137.035156 C 151.96875 134.9375 151.269531 133.9375 148.671875 133.9375 C 147.375 133.9375 146.875 134.636719 146.875 136.4375 Z M 159.761719 161.023438 C 158.164062 162.722656 156.367188 166.023438 155.765625 168.222656 C 154.46875 173.019531 155.367188 182.8125 157.164062 184.613281 C 157.863281 185.3125 162.0625 186.113281 166.558594 186.511719 L 174.75 187.210938 L 176.347656 181.515625 C 178.847656 173.117188 177.449219 166.421875 172.050781 160.625 C 168.355469 156.726562 163.660156 156.925781 159.761719 161.023438 Z M 173.453125 165.320312 C 175.648438 169.71875 174.652344 175.316406 171.351562 177.515625 C 168.15625 179.617188 165.257812 178.015625 163.960938 173.417969 C 161.460938 164.324219 169.65625 157.324219 173.453125 165.320312 Z M 163.261719 190.308594 C 164.859375 191.109375 167.058594 191.410156 168.257812 191.109375 C 170.152344 190.609375 170.152344 190.511719 168.257812 189.8125 C 167.257812 189.410156 165.058594 189.011719 163.359375 189.109375 L 160.363281 189.109375 Z M 727.675781 196.308594 C 726.078125 197.605469 724.179688 199.804688 723.480469 201.207031 L 722.082031 203.804688 L 719.183594 200.804688 C 716.984375 198.605469 715.289062 197.90625 712.390625 197.90625 C 710.390625 197.90625 708.195312 198.507812 707.695312 199.105469 C 706.296875 201.105469 703.097656 222.496094 703.796875 225.394531 C 704.496094 227.992188 709.59375 231.890625 712.488281 231.890625 C 713.390625 231.890625 715.785156 230.792969 717.886719 229.390625 C 719.882812 227.894531 721.683594 226.894531 721.882812 227.09375 C 721.980469 227.292969 722.882812 228.890625 723.78125 230.691406 C 725.578125 234.191406 730.675781 237.886719 733.671875 237.886719 C 739.667969 237.886719 745.859375 229.09375 746.859375 218.898438 L 747.359375 213.398438 L 745.859375 217.398438 C 744.164062 221.796875 740.964844 225.59375 738.269531 226.394531 C 735.46875 227.292969 730.773438 224.292969 728.976562 220.496094 C 725.078125 212.300781 726.179688 202.003906 731.375 196.707031 C 733.773438 194.308594 733.972656 193.910156 732.371094 193.910156 C 731.375 193.910156 729.277344 195.007812 727.675781 196.308594 Z M 715.6875 208.601562 C 714.886719 216.796875 713.390625 218.296875 711.492188 212.898438 C 709.992188 208.5 711.789062 204.402344 715.488281 204.003906 C 715.886719 203.902344 715.886719 206.003906 715.6875 208.601562 Z M 460.304688 258.578125 C 461.105469 260.675781 466.402344 271.570312 472.09375 282.867188 L 482.386719 303.355469 L 496.675781 306.855469 C 504.566406 308.753906 511.5625 310.355469 512.0625 310.355469 C 512.660156 310.355469 513.0625 308.953125 513.0625 307.355469 C 513.0625 304.457031 512.859375 304.355469 508.5625 304.15625 C 506.066406 303.957031 501.269531 303.65625 497.875 303.257812 L 491.679688 302.757812 L 475.492188 278.769531 C 466.601562 265.675781 459.207031 254.878906 459.007812 254.878906 C 458.808594 254.878906 459.40625 256.578125 460.304688 258.578125 Z M 522.152344 272.273438 C 519.054688 285.464844 519.054688 284.867188 521.351562 284.867188 C 522.851562 284.867188 523.652344 282.867188 525.648438 273.472656 C 527.949219 262.875 528.046875 261.976562 526.449219 261.578125 C 525.050781 261.175781 524.351562 262.976562 522.152344 272.273438 Z M 350.199219 277.070312 C 345.804688 278.570312 341.207031 279.867188 340.007812 279.867188 C 338.410156 279.867188 337.710938 280.46875 337.710938 281.867188 C 337.710938 282.964844 338.308594 283.867188 339.007812 283.867188 C 340.207031 283.867188 360.691406 276.167969 361.492188 275.46875 C 361.589844 275.269531 360.992188 274.96875 359.992188 274.671875 C 358.992188 274.46875 354.597656 275.46875 350.199219 277.070312 Z M 327.21875 298.460938 C 328.917969 299.957031 332.613281 303.355469 335.613281 305.957031 L 341.007812 310.753906 L 336.511719 313.550781 C 334.113281 315.050781 329.71875 317.449219 326.921875 318.75 C 320.925781 321.546875 320.324219 322.847656 325.023438 322.847656 C 328.519531 322.847656 346.601562 327.445312 359.09375 331.445312 C 371.582031 335.441406 371.882812 334.941406 363.089844 323.347656 C 358.894531 317.851562 354.195312 312.054688 352.597656 310.355469 L 349.800781 307.457031 L 347.101562 309.855469 C 345.605469 311.253906 344.605469 311.851562 344.90625 311.351562 C 345.203125 310.753906 340.707031 307.054688 334.8125 303.058594 C 329.019531 299.058594 325.621094 297.058594 327.21875 298.460938 Z M 634.15625 305.855469 C 633.855469 307.253906 633.257812 310.753906 632.957031 313.652344 C 632.457031 317.851562 632.65625 318.949219 633.65625 318.648438 C 635.355469 318.050781 636.65625 308.65625 635.554688 305.65625 L 634.65625 303.355469 Z M 528.449219 309.753906 L 524.050781 313.652344 L 526.550781 314.652344 C 527.949219 315.152344 530.347656 315.851562 531.84375 316.25 L 534.640625 316.949219 L 533.941406 311.652344 C 533.542969 308.753906 533.144531 306.253906 533.042969 306.054688 C 532.945312 305.957031 530.84375 307.554688 528.449219 309.753906 Z M 446.816406 320.648438 C 439.722656 323.546875 440.125 324.546875 448.617188 325.046875 L 454.011719 325.347656 L 454.3125 321.546875 C 454.609375 319.550781 454.410156 317.851562 453.910156 317.949219 C 453.511719 317.949219 450.3125 319.25 446.816406 320.648438 Z M 311.234375 328.84375 C 310.832031 330.144531 310.933594 331.34375 311.632812 331.742188 C 313.332031 332.84375 311.832031 338.941406 310.035156 338.640625 C 309.234375 338.441406 307.835938 339.339844 307.035156 340.539062 C 305.636719 342.539062 305.636719 342.839844 307.035156 342.839844 C 307.835938 342.839844 309.035156 342.238281 309.734375 341.4375 C 311.132812 339.640625 313.429688 340.339844 314.03125 342.636719 C 314.332031 343.636719 314.332031 340.9375 314.03125 336.839844 C 313.429688 328.246094 312.332031 325.246094 311.234375 328.84375 Z M 208.320312 336.742188 C 212.21875 340.640625 215.316406 344.136719 215.316406 344.539062 C 215.214844 344.9375 214.914062 351.335938 214.417969 358.632812 C 213.617188 371.625 213.515625 371.824219 211.121094 372.425781 C 205.425781 373.921875 194.332031 371.625 152.46875 360.429688 C 141.578125 357.429688 135.085938 356.132812 134.085938 356.730469 C 132.785156 357.429688 132.886719 357.632812 134.484375 358.132812 C 141.480469 360.332031 192.933594 373.023438 199.828125 374.324219 L 208.421875 376.023438 L 227.804688 370.425781 C 238.496094 367.328125 247.386719 364.628906 247.488281 364.429688 C 248.289062 363.628906 204.324219 329.84375 202.425781 329.84375 C 201.828125 329.84375 204.523438 332.941406 208.320312 336.742188 Z M 301.242188 346.535156 C 298.84375 347.136719 296.144531 349.035156 283.757812 358.730469 C 278.5625 362.828125 271.269531 368.125 267.472656 370.625 L 260.777344 375.125 L 262.375 377.722656 C 267.171875 385.019531 267.570312 385.21875 284.855469 386.21875 C 298.84375 387.117188 300.742188 387.417969 301.34375 389.015625 C 301.640625 390.015625 302.140625 390.816406 302.539062 390.816406 C 302.941406 390.816406 305.9375 391.316406 309.234375 391.816406 C 312.53125 392.414062 337.011719 396.214844 363.6875 400.3125 C 424.4375 409.707031 407.550781 407.109375 530.546875 425.800781 C 588.496094 434.59375 640.652344 442.492188 646.347656 443.390625 C 655.039062 444.691406 656.835938 444.789062 657.535156 443.691406 C 658.234375 442.492188 658.835938 438.894531 658.636719 436.695312 C 658.636719 436.394531 658.9375 434.394531 659.433594 432.296875 C 660.335938 428.199219 660.234375 427.796875 644.449219 399.613281 C 643.648438 398.113281 638.851562 389.316406 633.757812 380.121094 C 628.660156 370.925781 624.164062 362.730469 623.765625 361.929688 C 623.066406 360.828125 622.46875 361.128906 621.167969 363.230469 C 619.371094 365.828125 619.46875 366.027344 621.765625 370.125 C 623.167969 372.425781 627.863281 381.019531 632.359375 389.214844 L 640.453125 404.109375 L 638.554688 407.207031 C 637.453125 408.90625 635.457031 411.40625 634.15625 412.707031 L 631.660156 415.003906 L 621.566406 413.105469 C 615.972656 412.003906 611.476562 411.304688 611.476562 411.507812 C 611.476562 411.707031 612.074219 413.40625 612.875 415.203125 L 614.273438 418.601562 L 604.082031 419.300781 C 598.488281 419.703125 581.101562 419.800781 565.515625 419.503906 C 534.242188 419.003906 527.949219 418.101562 523.953125 413.503906 C 521.652344 410.804688 520.554688 410.90625 520.554688 414.003906 C 520.554688 415.003906 520.15625 415.804688 519.554688 415.804688 C 519.054688 415.804688 513.160156 414.003906 506.367188 411.90625 C 469.898438 400.3125 437.726562 391.316406 436.726562 392.316406 C 436.527344 392.613281 436.824219 393.914062 437.425781 395.214844 C 438.226562 397.011719 439.523438 397.710938 443.21875 398.3125 L 447.917969 399.011719 L 443.519531 403.410156 C 438.324219 408.707031 437.125 408.808594 420.140625 405.308594 C 412.648438 403.808594 404.753906 402.808594 399.15625 402.808594 C 382.671875 402.808594 363.390625 399.613281 350.699219 394.8125 C 346.601562 393.316406 340.609375 391.515625 337.410156 390.816406 C 327.417969 388.816406 323.621094 383.121094 318.128906 362.328125 C 315.929688 353.832031 315.828125 353.632812 315.730469 358.03125 L 315.730469 362.730469 L 310.035156 363.328125 C 306.835938 363.730469 299.84375 364.628906 294.449219 365.226562 L 284.65625 366.527344 L 288.953125 361.929688 C 291.351562 359.429688 295.648438 354.734375 298.746094 351.535156 C 301.742188 348.4375 303.941406 345.9375 303.738281 345.9375 C 303.441406 346.035156 302.339844 346.335938 301.242188 346.535156 Z M 649.644531 421.101562 C 653.242188 427.796875 656.136719 433.496094 655.9375 433.695312 C 655.738281 433.894531 649.242188 433.394531 641.550781 432.695312 C 628.960938 431.597656 627.261719 431.195312 625.265625 429.097656 L 623.066406 426.796875 L 626.464844 428 C 629.660156 429.097656 629.960938 428.996094 633.058594 425.398438 C 634.855469 423.300781 637.554688 418.703125 639.050781 415.203125 C 640.652344 411.707031 642.148438 408.808594 642.449219 408.808594 C 642.75 408.808594 645.945312 414.304688 649.644531 421.101562 Z M 649.644531 421.101562 "/>
<path style=" stroke:none;fill-rule:nonzero;fill:rgb(0%,0%,0%);fill-opacity:1;" d="M 444.121094 355.933594 C 443.71875 356.53125 443.621094 357.132812 443.917969 357.429688 C 444.121094 357.730469 444.621094 357.230469 444.917969 356.332031 C 445.617188 354.632812 445.019531 354.332031 444.121094 355.933594 Z M 442.722656 359.53125 C 442.621094 360.128906 442.320312 361.53125 442.019531 362.527344 C 441.523438 364.226562 441.523438 364.226562 442.621094 362.527344 C 443.21875 361.53125 443.519531 360.230469 443.21875 359.53125 C 442.921875 358.632812 442.722656 358.632812 442.722656 359.53125 Z M 597.488281 376.824219 C 597.488281 377.722656 607.480469 379.121094 608.277344 378.320312 C 608.578125 378.023438 608.578125 377.621094 608.378906 377.421875 C 607.578125 376.722656 597.488281 376.121094 597.488281 376.824219 Z M 840.980469 515.15625 L 808.207031 529.25 L 813.703125 529.550781 C 818.898438 529.851562 821.097656 529.050781 847.273438 517.65625 C 868.957031 508.160156 875.25 505.0625 875.25 503.664062 C 875.25 502.664062 874.949219 501.664062 874.550781 501.464844 C 874.050781 501.261719 858.964844 507.460938 840.980469 515.15625 Z M 840.980469 515.15625 "/>
</g>
</svg>
